<?xml version="1.0" encoding="utf-8" standalone="no"?>
<!DOCTYPE svg PUBLIC "-//W3C//DTD SVG 1.1//EN"
  "http://www.w3.org/Graphics/SVG/1.1/DTD/svg11.dtd">
<svg xmlns:xlink="http://www.w3.org/1999/xlink" width="377.208438pt" height="263.164062pt" viewBox="0 0 377.208438 263.164062" xmlns="http://www.w3.org/2000/svg" version="1.1">
 <metadata>
  <rdf:RDF xmlns:dc="http://purl.org/dc/elements/1.1/" xmlns:cc="http://creativecommons.org/ns#" xmlns:rdf="http://www.w3.org/1999/02/22-rdf-syntax-ns#">
   <cc:Work>
    <dc:type rdf:resource="http://purl.org/dc/dcmitype/StillImage"/>
    <dc:date>2022-03-15T00:43:31.091892</dc:date>
    <dc:format>image/svg+xml</dc:format>
    <dc:creator>
     <cc:Agent>
      <dc:title>Matplotlib v3.5.1, https://matplotlib.org/</dc:title>
     </cc:Agent>
    </dc:creator>
   </cc:Work>
  </rdf:RDF>
 </metadata>
 <defs>
  <style type="text/css">*{stroke-linejoin: round; stroke-linecap: butt}</style>
 </defs>
 <g id="figure_1">
  <g id="patch_1">
   <path d="M 0 263.164062 
L 377.208438 263.164062 
L 377.208438 0 
L 0 0 
z
" style="fill: #ffffff"/>
  </g>
  <g id="axes_1">
   <g id="patch_2">
    <path d="M 35.208438 224.64 
L 370.008438 224.64 
L 370.008438 7.2 
L 35.208438 7.2 
z
" style="fill: #ffffff"/>
   </g>
   <g id="matplotlib.axis_1">
    <g id="xtick_1">
     <g id="line2d_1">
      <defs>
       <path id="mcbaab39e41" d="M 0 0 
L 0 3.5 
" style="stroke: #000000; stroke-width: 0.8"/>
      </defs>
      <g>
       <use xlink:href="#mcbaab39e41" x="50.426619" y="224.64" style="stroke: #000000; stroke-width: 0.8"/>
      </g>
     </g>
     <g id="text_1">
      <!-- 210 -->
      <g transform="translate(40.882869 239.238438)scale(0.1 -0.1)">
       <defs>
        <path id="DejaVuSans-32" d="M 1228 531 
L 3431 531 
L 3431 0 
L 469 0 
L 469 531 
Q 828 903 1448 1529 
Q 2069 2156 2228 2338 
Q 2531 2678 2651 2914 
Q 2772 3150 2772 3378 
Q 2772 3750 2511 3984 
Q 2250 4219 1831 4219 
Q 1534 4219 1204 4116 
Q 875 4013 500 3803 
L 500 4441 
Q 881 4594 1212 4672 
Q 1544 4750 1819 4750 
Q 2544 4750 2975 4387 
Q 3406 4025 3406 3419 
Q 3406 3131 3298 2873 
Q 3191 2616 2906 2266 
Q 2828 2175 2409 1742 
Q 1991 1309 1228 531 
z
" transform="scale(0.015625)"/>
        <path id="DejaVuSans-31" d="M 794 531 
L 1825 531 
L 1825 4091 
L 703 3866 
L 703 4441 
L 1819 4666 
L 2450 4666 
L 2450 531 
L 3481 531 
L 3481 0 
L 794 0 
L 794 531 
z
" transform="scale(0.015625)"/>
        <path id="DejaVuSans-30" d="M 2034 4250 
Q 1547 4250 1301 3770 
Q 1056 3291 1056 2328 
Q 1056 1369 1301 889 
Q 1547 409 2034 409 
Q 2525 409 2770 889 
Q 3016 1369 3016 2328 
Q 3016 3291 2770 3770 
Q 2525 4250 2034 4250 
z
M 2034 4750 
Q 2819 4750 3233 4129 
Q 3647 3509 3647 2328 
Q 3647 1150 3233 529 
Q 2819 -91 2034 -91 
Q 1250 -91 836 529 
Q 422 1150 422 2328 
Q 422 3509 836 4129 
Q 1250 4750 2034 4750 
z
" transform="scale(0.015625)"/>
       </defs>
       <use xlink:href="#DejaVuSans-32"/>
       <use xlink:href="#DejaVuSans-31" x="63.623047"/>
       <use xlink:href="#DejaVuSans-30" x="127.246094"/>
      </g>
     </g>
    </g>
    <g id="xtick_2">
     <g id="line2d_2">
      <g>
       <use xlink:href="#mcbaab39e41" x="119.287171" y="224.64" style="stroke: #000000; stroke-width: 0.8"/>
      </g>
     </g>
     <g id="text_2">
      <!-- 215 -->
      <g transform="translate(109.743421 239.238438)scale(0.1 -0.1)">
       <defs>
        <path id="DejaVuSans-35" d="M 691 4666 
L 3169 4666 
L 3169 4134 
L 1269 4134 
L 1269 2991 
Q 1406 3038 1543 3061 
Q 1681 3084 1819 3084 
Q 2600 3084 3056 2656 
Q 3513 2228 3513 1497 
Q 3513 744 3044 326 
Q 2575 -91 1722 -91 
Q 1428 -91 1123 -41 
Q 819 9 494 109 
L 494 744 
Q 775 591 1075 516 
Q 1375 441 1709 441 
Q 2250 441 2565 725 
Q 2881 1009 2881 1497 
Q 2881 1984 2565 2268 
Q 2250 2553 1709 2553 
Q 1456 2553 1204 2497 
Q 953 2441 691 2322 
L 691 4666 
z
" transform="scale(0.015625)"/>
       </defs>
       <use xlink:href="#DejaVuSans-32"/>
       <use xlink:href="#DejaVuSans-31" x="63.623047"/>
       <use xlink:href="#DejaVuSans-35" x="127.246094"/>
      </g>
     </g>
    </g>
    <g id="xtick_3">
     <g id="line2d_3">
      <g>
       <use xlink:href="#mcbaab39e41" x="188.147722" y="224.64" style="stroke: #000000; stroke-width: 0.8"/>
      </g>
     </g>
     <g id="text_3">
      <!-- 220 -->
      <g transform="translate(178.603972 239.238438)scale(0.1 -0.1)">
       <use xlink:href="#DejaVuSans-32"/>
       <use xlink:href="#DejaVuSans-32" x="63.623047"/>
       <use xlink:href="#DejaVuSans-30" x="127.246094"/>
      </g>
     </g>
    </g>
    <g id="xtick_4">
     <g id="line2d_4">
      <g>
       <use xlink:href="#mcbaab39e41" x="257.008273" y="224.64" style="stroke: #000000; stroke-width: 0.8"/>
      </g>
     </g>
     <g id="text_4">
      <!-- 225 -->
      <g transform="translate(247.464523 239.238438)scale(0.1 -0.1)">
       <use xlink:href="#DejaVuSans-32"/>
       <use xlink:href="#DejaVuSans-32" x="63.623047"/>
       <use xlink:href="#DejaVuSans-35" x="127.246094"/>
      </g>
     </g>
    </g>
    <g id="xtick_5">
     <g id="line2d_5">
      <g>
       <use xlink:href="#mcbaab39e41" x="325.868824" y="224.64" style="stroke: #000000; stroke-width: 0.8"/>
      </g>
     </g>
     <g id="text_5">
      <!-- 230 -->
      <g transform="translate(316.325074 239.238438)scale(0.1 -0.1)">
       <defs>
        <path id="DejaVuSans-33" d="M 2597 2516 
Q 3050 2419 3304 2112 
Q 3559 1806 3559 1356 
Q 3559 666 3084 287 
Q 2609 -91 1734 -91 
Q 1441 -91 1130 -33 
Q 819 25 488 141 
L 488 750 
Q 750 597 1062 519 
Q 1375 441 1716 441 
Q 2309 441 2620 675 
Q 2931 909 2931 1356 
Q 2931 1769 2642 2001 
Q 2353 2234 1838 2234 
L 1294 2234 
L 1294 2753 
L 1863 2753 
Q 2328 2753 2575 2939 
Q 2822 3125 2822 3475 
Q 2822 3834 2567 4026 
Q 2313 4219 1838 4219 
Q 1578 4219 1281 4162 
Q 984 4106 628 3988 
L 628 4550 
Q 988 4650 1302 4700 
Q 1616 4750 1894 4750 
Q 2613 4750 3031 4423 
Q 3450 4097 3450 3541 
Q 3450 3153 3228 2886 
Q 3006 2619 2597 2516 
z
" transform="scale(0.015625)"/>
       </defs>
       <use xlink:href="#DejaVuSans-32"/>
       <use xlink:href="#DejaVuSans-33" x="63.623047"/>
       <use xlink:href="#DejaVuSans-30" x="127.246094"/>
      </g>
     </g>
    </g>
    <g id="text_6">
     <!-- Weg -->
     <g transform="translate(190.617578 253.676406)scale(0.11 -0.11)">
      <defs>
       <path id="DejaVuSans-57" d="M 213 4666 
L 850 4666 
L 1831 722 
L 2809 4666 
L 3519 4666 
L 4500 722 
L 5478 4666 
L 6119 4666 
L 4947 0 
L 4153 0 
L 3169 4050 
L 2175 0 
L 1381 0 
L 213 4666 
z
" transform="scale(0.015625)"/>
       <path id="DejaVuSans-65" d="M 3597 1894 
L 3597 1613 
L 953 1613 
Q 991 1019 1311 708 
Q 1631 397 2203 397 
Q 2534 397 2845 478 
Q 3156 559 3463 722 
L 3463 178 
Q 3153 47 2828 -22 
Q 2503 -91 2169 -91 
Q 1331 -91 842 396 
Q 353 884 353 1716 
Q 353 2575 817 3079 
Q 1281 3584 2069 3584 
Q 2775 3584 3186 3129 
Q 3597 2675 3597 1894 
z
M 3022 2063 
Q 3016 2534 2758 2815 
Q 2500 3097 2075 3097 
Q 1594 3097 1305 2825 
Q 1016 2553 972 2059 
L 3022 2063 
z
" transform="scale(0.015625)"/>
       <path id="DejaVuSans-67" d="M 2906 1791 
Q 2906 2416 2648 2759 
Q 2391 3103 1925 3103 
Q 1463 3103 1205 2759 
Q 947 2416 947 1791 
Q 947 1169 1205 825 
Q 1463 481 1925 481 
Q 2391 481 2648 825 
Q 2906 1169 2906 1791 
z
M 3481 434 
Q 3481 -459 3084 -895 
Q 2688 -1331 1869 -1331 
Q 1566 -1331 1297 -1286 
Q 1028 -1241 775 -1147 
L 775 -588 
Q 1028 -725 1275 -790 
Q 1522 -856 1778 -856 
Q 2344 -856 2625 -561 
Q 2906 -266 2906 331 
L 2906 616 
Q 2728 306 2450 153 
Q 2172 0 1784 0 
Q 1141 0 747 490 
Q 353 981 353 1791 
Q 353 2603 747 3093 
Q 1141 3584 1784 3584 
Q 2172 3584 2450 3431 
Q 2728 3278 2906 2969 
L 2906 3500 
L 3481 3500 
L 3481 434 
z
" transform="scale(0.015625)"/>
      </defs>
      <use xlink:href="#DejaVuSans-57"/>
      <use xlink:href="#DejaVuSans-65" x="93.001953"/>
      <use xlink:href="#DejaVuSans-67" x="154.525391"/>
     </g>
    </g>
   </g>
   <g id="matplotlib.axis_2">
    <g id="ytick_1">
     <g id="line2d_6">
      <defs>
       <path id="m4d25bb2ea6" d="M 0 0 
L -3.5 0 
" style="stroke: #000000; stroke-width: 0.8"/>
      </defs>
      <g>
       <use xlink:href="#m4d25bb2ea6" x="35.208438" y="214.442686" style="stroke: #000000; stroke-width: 0.8"/>
      </g>
     </g>
     <g id="text_7">
      <!-- 0 -->
      <g transform="translate(21.845938 218.241905)scale(0.1 -0.1)">
       <use xlink:href="#DejaVuSans-30"/>
      </g>
     </g>
    </g>
    <g id="ytick_2">
     <g id="line2d_7">
      <g>
       <use xlink:href="#m4d25bb2ea6" x="35.208438" y="184.443211" style="stroke: #000000; stroke-width: 0.8"/>
      </g>
     </g>
     <g id="text_8">
      <!-- 1 -->
      <g transform="translate(21.845938 188.242429)scale(0.1 -0.1)">
       <use xlink:href="#DejaVuSans-31"/>
      </g>
     </g>
    </g>
    <g id="ytick_3">
     <g id="line2d_8">
      <g>
       <use xlink:href="#m4d25bb2ea6" x="35.208438" y="154.443735" style="stroke: #000000; stroke-width: 0.8"/>
      </g>
     </g>
     <g id="text_9">
      <!-- 2 -->
      <g transform="translate(21.845938 158.242953)scale(0.1 -0.1)">
       <use xlink:href="#DejaVuSans-32"/>
      </g>
     </g>
    </g>
    <g id="ytick_4">
     <g id="line2d_9">
      <g>
       <use xlink:href="#m4d25bb2ea6" x="35.208438" y="124.444259" style="stroke: #000000; stroke-width: 0.8"/>
      </g>
     </g>
     <g id="text_10">
      <!-- 3 -->
      <g transform="translate(21.845938 128.243478)scale(0.1 -0.1)">
       <use xlink:href="#DejaVuSans-33"/>
      </g>
     </g>
    </g>
    <g id="ytick_5">
     <g id="line2d_10">
      <g>
       <use xlink:href="#m4d25bb2ea6" x="35.208438" y="94.444783" style="stroke: #000000; stroke-width: 0.8"/>
      </g>
     </g>
     <g id="text_11">
      <!-- 4 -->
      <g transform="translate(21.845938 98.244002)scale(0.1 -0.1)">
       <defs>
        <path id="DejaVuSans-34" d="M 2419 4116 
L 825 1625 
L 2419 1625 
L 2419 4116 
z
M 2253 4666 
L 3047 4666 
L 3047 1625 
L 3713 1625 
L 3713 1100 
L 3047 1100 
L 3047 0 
L 2419 0 
L 2419 1100 
L 313 1100 
L 313 1709 
L 2253 4666 
z
" transform="scale(0.015625)"/>
       </defs>
       <use xlink:href="#DejaVuSans-34"/>
      </g>
     </g>
    </g>
    <g id="ytick_6">
     <g id="line2d_11">
      <g>
       <use xlink:href="#m4d25bb2ea6" x="35.208438" y="64.445307" style="stroke: #000000; stroke-width: 0.8"/>
      </g>
     </g>
     <g id="text_12">
      <!-- 5 -->
      <g transform="translate(21.845938 68.244526)scale(0.1 -0.1)">
       <use xlink:href="#DejaVuSans-35"/>
      </g>
     </g>
    </g>
    <g id="ytick_7">
     <g id="line2d_12">
      <g>
       <use xlink:href="#m4d25bb2ea6" x="35.208438" y="34.445831" style="stroke: #000000; stroke-width: 0.8"/>
      </g>
     </g>
     <g id="text_13">
      <!-- 6 -->
      <g transform="translate(21.845938 38.24505)scale(0.1 -0.1)">
       <defs>
        <path id="DejaVuSans-36" d="M 2113 2584 
Q 1688 2584 1439 2293 
Q 1191 2003 1191 1497 
Q 1191 994 1439 701 
Q 1688 409 2113 409 
Q 2538 409 2786 701 
Q 3034 994 3034 1497 
Q 3034 2003 2786 2293 
Q 2538 2584 2113 2584 
z
M 3366 4563 
L 3366 3988 
Q 3128 4100 2886 4159 
Q 2644 4219 2406 4219 
Q 1781 4219 1451 3797 
Q 1122 3375 1075 2522 
Q 1259 2794 1537 2939 
Q 1816 3084 2150 3084 
Q 2853 3084 3261 2657 
Q 3669 2231 3669 1497 
Q 3669 778 3244 343 
Q 2819 -91 2113 -91 
Q 1303 -91 875 529 
Q 447 1150 447 2328 
Q 447 3434 972 4092 
Q 1497 4750 2381 4750 
Q 2619 4750 2861 4703 
Q 3103 4656 3366 4563 
z
" transform="scale(0.015625)"/>
       </defs>
       <use xlink:href="#DejaVuSans-36"/>
      </g>
     </g>
    </g>
    <g id="text_14">
     <!-- Kraft -->
     <g transform="translate(15.558281 129.154375)rotate(-90)scale(0.11 -0.11)">
      <defs>
       <path id="DejaVuSans-4b" d="M 628 4666 
L 1259 4666 
L 1259 2694 
L 3353 4666 
L 4166 4666 
L 1850 2491 
L 4331 0 
L 3500 0 
L 1259 2247 
L 1259 0 
L 628 0 
L 628 4666 
z
" transform="scale(0.015625)"/>
       <path id="DejaVuSans-72" d="M 2631 2963 
Q 2534 3019 2420 3045 
Q 2306 3072 2169 3072 
Q 1681 3072 1420 2755 
Q 1159 2438 1159 1844 
L 1159 0 
L 581 0 
L 581 3500 
L 1159 3500 
L 1159 2956 
Q 1341 3275 1631 3429 
Q 1922 3584 2338 3584 
Q 2397 3584 2469 3576 
Q 2541 3569 2628 3553 
L 2631 2963 
z
" transform="scale(0.015625)"/>
       <path id="DejaVuSans-61" d="M 2194 1759 
Q 1497 1759 1228 1600 
Q 959 1441 959 1056 
Q 959 750 1161 570 
Q 1363 391 1709 391 
Q 2188 391 2477 730 
Q 2766 1069 2766 1631 
L 2766 1759 
L 2194 1759 
z
M 3341 1997 
L 3341 0 
L 2766 0 
L 2766 531 
Q 2569 213 2275 61 
Q 1981 -91 1556 -91 
Q 1019 -91 701 211 
Q 384 513 384 1019 
Q 384 1609 779 1909 
Q 1175 2209 1959 2209 
L 2766 2209 
L 2766 2266 
Q 2766 2663 2505 2880 
Q 2244 3097 1772 3097 
Q 1472 3097 1187 3025 
Q 903 2953 641 2809 
L 641 3341 
Q 956 3463 1253 3523 
Q 1550 3584 1831 3584 
Q 2591 3584 2966 3190 
Q 3341 2797 3341 1997 
z
" transform="scale(0.015625)"/>
       <path id="DejaVuSans-66" d="M 2375 4863 
L 2375 4384 
L 1825 4384 
Q 1516 4384 1395 4259 
Q 1275 4134 1275 3809 
L 1275 3500 
L 2222 3500 
L 2222 3053 
L 1275 3053 
L 1275 0 
L 697 0 
L 697 3053 
L 147 3053 
L 147 3500 
L 697 3500 
L 697 3744 
Q 697 4328 969 4595 
Q 1241 4863 1831 4863 
L 2375 4863 
z
" transform="scale(0.015625)"/>
       <path id="DejaVuSans-74" d="M 1172 4494 
L 1172 3500 
L 2356 3500 
L 2356 3053 
L 1172 3053 
L 1172 1153 
Q 1172 725 1289 603 
Q 1406 481 1766 481 
L 2356 481 
L 2356 0 
L 1766 0 
Q 1100 0 847 248 
Q 594 497 594 1153 
L 594 3053 
L 172 3053 
L 172 3500 
L 594 3500 
L 594 4494 
L 1172 4494 
z
" transform="scale(0.015625)"/>
      </defs>
      <use xlink:href="#DejaVuSans-4b"/>
      <use xlink:href="#DejaVuSans-72" x="65.576172"/>
      <use xlink:href="#DejaVuSans-61" x="106.689453"/>
      <use xlink:href="#DejaVuSans-66" x="167.96875"/>
      <use xlink:href="#DejaVuSans-74" x="201.423828"/>
     </g>
    </g>
   </g>
   <g id="line2d_13">
    <path d="M 50.426619 214.333024 
L 69.707574 214.359808 
L 73.839207 214.348366 
L 91.74295 214.344507 
L 104.137849 214.348327 
L 112.401115 214.291249 
L 115.155537 213.656369 
L 116.532748 213.542722 
L 117.90996 213.633974 
L 122.041593 214.169443 
L 123.418804 214.329549 
L 130.304859 214.013814 
L 133.059281 213.554174 
L 135.813703 212.79359 
L 137.190914 212.140004 
L 138.568125 211.159621 
L 139.945336 209.700218 
L 141.322547 207.423694 
L 142.699758 203.60047 
L 144.076969 196.5357 
L 145.45418 185.947469 
L 148.208602 162.312857 
L 149.585813 151.747649 
L 150.963024 143.489186 
L 152.340235 137.29067 
L 153.717446 133.444881 
L 155.094657 131.917049 
L 156.471868 132.027161 
L 157.849079 133.824926 
L 159.22629 136.735909 
L 161.980712 144.124024 
L 163.357923 146.681941 
L 164.735134 148.000439 
L 166.112345 147.529188 
L 167.489556 144.523119 
L 168.866767 138.822382 
L 171.621189 120.500549 
L 172.9984 111.337968 
L 174.375612 103.801711 
L 175.752823 98.480961 
L 177.130034 94.502099 
L 178.507245 92.670214 
L 179.884456 92.213869 
L 181.261667 93.004657 
L 182.638878 94.608434 
L 184.016089 96.554186 
L 185.3933 98.990262 
L 186.770511 100.928592 
L 188.147722 101.977503 
L 189.524933 102.178715 
L 190.902144 100.560074 
L 192.279355 97.401592 
L 193.656566 91.60232 
L 196.410988 76.902414 
L 197.788199 70.376983 
L 199.16541 65.980107 
L 200.542621 63.137151 
L 201.919832 61.692972 
L 203.297043 61.392819 
L 204.674254 61.886866 
L 206.051465 63.09547 
L 210.183098 68.465358 
L 211.560309 69.362362 
L 212.93752 69.951364 
L 214.314731 69.22552 
L 215.691942 66.451145 
L 217.069153 61.833556 
L 219.823575 49.345462 
L 221.200786 44.71659 
L 222.577997 41.15175 
L 223.955208 38.997206 
L 225.332419 37.807439 
L 226.70963 37.644194 
L 228.086841 38.301608 
L 229.464052 39.445583 
L 232.218475 43.663871 
L 233.595686 46.122741 
L 236.350108 51.397739 
L 237.727319 53.582921 
L 239.10453 54.438156 
L 240.481741 53.377726 
L 241.858952 49.086976 
L 243.236163 41.319027 
L 244.613374 34.504985 
L 245.990585 29.91018 
L 247.367796 27.314609 
L 248.745007 26.026231 
L 250.122218 25.885596 
L 251.499429 26.660896 
L 252.87664 28.215291 
L 254.253851 30.887111 
L 255.631062 34.755639 
L 257.008273 39.37324 
L 261.139906 54.765047 
L 262.517117 59.032723 
L 263.894328 62.430331 
L 265.271539 64.992022 
L 266.64875 66.485462 
L 268.025961 67.663482 
L 269.403172 68.503315 
L 272.157594 69.620655 
L 277.666438 71.034406 
L 279.043649 71.513591 
L 280.42086 71.718616 
L 285.929704 73.238655 
L 288.684127 73.843103 
L 290.061338 74.302898 
L 291.438549 74.572634 
L 292.81576 75.024943 
L 294.192971 75.13902 
L 299.701815 76.586802 
L 301.079026 76.738887 
L 313.473925 79.577622 
L 314.851136 79.687987 
L 318.982769 80.600118 
L 320.35998 80.915573 
L 321.737191 81.029299 
L 324.491613 81.702382 
L 325.868824 81.911432 
L 327.246035 82.241955 
L 328.623246 82.310298 
L 334.13209 83.499833 
L 335.509301 83.5873 
L 339.640934 84.385276 
L 341.018145 84.697031 
L 343.772567 85.09612 
L 345.149779 85.445683 
L 346.52699 85.662494 
L 347.904201 86.448846 
L 349.281412 87.851486 
L 350.658623 89.816342 
L 352.035834 92.632264 
L 353.413045 99.332506 
L 354.790256 99.624984 
L 354.790256 99.624984 
" clip-path="url(#pc259dbe48a)" style="fill: none; stroke: #1f77b4; stroke-width: 1.5; stroke-linecap: square"/>
   </g>
   <g id="line2d_14">
    <path d="M 50.426619 214.002805 
L 58.689885 213.991515 
L 75.216418 213.991531 
L 86.234106 214.0104 
L 90.365739 214.006685 
L 119.287171 213.904195 
L 122.041593 213.96107 
L 126.173226 213.98012 
L 130.304859 213.99905 
L 134.436492 213.501118 
L 137.190914 212.976564 
L 139.945336 212.121456 
L 141.322547 211.4408 
L 142.699758 210.429963 
L 144.076969 208.563797 
L 145.45418 205.306795 
L 146.831391 200.176258 
L 148.208602 192.594303 
L 149.585813 181.459047 
L 152.340235 157.007119 
L 153.717446 146.787981 
L 155.094657 139.304811 
L 156.471868 133.938763 
L 157.849079 131.388584 
L 159.22629 131.358274 
L 160.603501 133.121602 
L 161.980712 136.568546 
L 163.357923 140.703411 
L 166.112345 150.561689 
L 167.489556 154.521673 
L 168.866767 157.455515 
L 170.243978 157.580931 
L 171.621189 154.297516 
L 172.9984 146.559825 
L 175.752823 123.768825 
L 177.130034 114.541408 
L 178.507245 108.016087 
L 179.884456 104.390607 
L 181.261667 103.045169 
L 182.638878 103.641902 
L 184.016089 105.329051 
L 185.3933 108.149177 
L 186.770511 111.61118 
L 189.524933 119.124588 
L 190.902144 121.731841 
L 192.279355 122.993382 
L 193.656566 122.438669 
L 195.033777 119.546543 
L 196.410988 113.249189 
L 199.16541 92.168447 
L 200.542621 84.556057 
L 201.919832 79.136707 
L 203.297043 76.461042 
L 204.674254 75.590845 
L 206.051465 76.275107 
L 207.428676 77.8979 
L 208.805887 80.204549 
L 212.93752 89.793155 
L 214.314731 92.308967 
L 215.691942 93.878503 
L 217.069153 94.231908 
L 218.446364 92.517962 
L 219.823575 87.079775 
L 222.577997 70.164073 
L 223.955208 64.444343 
L 225.332419 61.115123 
L 226.70963 59.606305 
L 228.086841 59.636938 
L 229.464052 60.549042 
L 230.841263 62.312268 
L 233.595686 66.363568 
L 239.10453 75.42372 
L 240.481741 76.924913 
L 241.858952 77.491162 
L 243.236163 74.162142 
L 245.990585 54.589892 
L 247.367796 48.216605 
L 248.745007 44.754332 
L 250.122218 43.306289 
L 251.499429 43.131623 
L 252.87664 43.663656 
L 254.253851 45.009203 
L 255.631062 47.160203 
L 257.008273 50.105331 
L 258.385484 53.848865 
L 259.762695 58.500322 
L 265.271539 79.934783 
L 266.64875 83.723829 
L 268.025961 86.786873 
L 269.403172 88.926647 
L 270.780383 90.272004 
L 272.157594 91.419862 
L 276.289227 93.601004 
L 279.043649 94.703141 
L 280.42086 95.071803 
L 285.929704 97.066923 
L 288.684127 97.823253 
L 290.061338 98.389666 
L 306.58787 103.215921 
L 309.342292 103.736918 
L 310.719503 104.196657 
L 312.096714 104.485402 
L 313.473925 104.934026 
L 314.851136 105.074597 
L 327.246035 107.810925 
L 328.623246 107.913464 
L 330.000457 108.156664 
L 331.377668 108.536613 
L 346.52699 111.030032 
L 347.904201 111.504617 
L 349.281412 112.253501 
L 350.658623 113.249127 
L 352.035834 114.583107 
L 353.413045 118.014865 
L 354.790256 118.208742 
L 354.790256 118.208742 
" clip-path="url(#pc259dbe48a)" style="fill: none; stroke: #ff7f0e; stroke-width: 1.5; stroke-linecap: square"/>
   </g>
   <g id="line2d_15">
    <path d="M 50.426619 214.08249 
L 71.084785 214.059764 
L 73.839207 214.078722 
L 115.155537 214.082517 
L 117.90996 214.048341 
L 119.287171 213.641583 
L 120.664382 213.729149 
L 122.041593 213.987548 
L 124.796015 214.078729 
L 134.436492 213.941941 
L 135.813703 213.820173 
L 137.190914 213.489635 
L 138.568125 213.025844 
L 139.945336 212.421625 
L 141.322547 211.653704 
L 142.699758 210.494634 
L 144.076969 208.370167 
L 145.45418 204.523942 
L 146.831391 198.078412 
L 148.208602 188.318893 
L 152.340235 153.578922 
L 153.717446 144.701646 
L 155.094657 138.556294 
L 156.471868 134.36826 
L 157.849079 132.414803 
L 159.22629 132.460361 
L 160.603501 134.413959 
L 163.357923 141.790414 
L 166.112345 150.348729 
L 167.489556 153.560206 
L 168.866767 155.000484 
L 170.243978 153.290458 
L 171.621189 147.281809 
L 172.9984 136.781474 
L 174.375612 124.677049 
L 175.752823 114.875879 
L 177.130034 107.012767 
L 178.507245 101.809819 
L 179.884456 99.016521 
L 181.261667 98.621381 
L 182.638878 100.008708 
L 184.016089 102.16337 
L 189.524933 114.674528 
L 190.902144 115.468856 
L 192.279355 114.320948 
L 193.656566 111.075368 
L 195.033777 104.454997 
L 196.410988 94.638555 
L 197.788199 83.461859 
L 199.16541 74.561152 
L 200.542621 68.556316 
L 201.919832 64.626764 
L 203.297043 62.878663 
L 204.674254 62.779723 
L 206.051465 64.048986 
L 207.428676 66.43176 
L 208.805887 69.278409 
L 211.560309 75.864691 
L 212.93752 78.56669 
L 214.314731 80.402445 
L 215.691942 80.425113 
L 217.069153 78.437517 
L 218.446364 71.779144 
L 219.823575 61.575149 
L 221.200786 52.533949 
L 222.577997 45.670253 
L 223.955208 41.455711 
L 225.332419 39.456609 
L 226.70963 38.989175 
L 228.086841 39.859413 
L 229.464052 41.432995 
L 232.218475 46.153025 
L 233.595686 48.775233 
L 234.972897 51.659783 
L 236.350108 53.62068 
L 237.727319 54.924377 
L 239.10453 55.07626 
L 240.481741 53.202501 
L 241.858952 47.597075 
L 243.236163 37.76529 
L 244.613374 28.895432 
L 245.990585 22.98586 
L 247.367796 19.45898 
L 248.745007 17.646234 
L 250.122218 17.083636 
L 251.499429 17.649623 
L 252.87664 19.01402 
L 254.253851 21.465537 
L 255.631062 25.155706 
L 257.008273 29.76162 
L 258.385484 35.071144 
L 261.139906 46.852388 
L 262.517117 52.169081 
L 263.894328 56.752256 
L 265.271539 60.119547 
L 266.64875 62.019717 
L 268.025961 63.057206 
L 269.403172 63.634786 
L 272.157594 64.459622 
L 274.912016 65.029382 
L 283.175282 67.16934 
L 288.684127 68.541404 
L 290.061338 69.016138 
L 298.324604 71.110386 
L 299.701815 71.53601 
L 302.456237 72.113702 
L 306.58787 73.158821 
L 307.965081 73.333484 
L 313.473925 74.534497 
L 316.228347 74.937247 
L 320.35998 75.746532 
L 321.737191 75.879812 
L 327.246035 76.917429 
L 328.623246 77.016081 
L 334.13209 77.882538 
L 335.509301 77.958577 
L 341.018145 78.775559 
L 343.772567 79.01138 
L 345.149779 79.24309 
L 346.52699 79.341931 
L 347.904201 79.805709 
L 349.281412 80.558117 
L 350.658623 81.576727 
L 352.035834 82.959898 
L 353.413045 86.68439 
L 354.790256 86.923956 
L 354.790256 86.923956 
" clip-path="url(#pc259dbe48a)" style="fill: none; stroke: #2ca02c; stroke-width: 1.5; stroke-linecap: square"/>
   </g>
   <g id="line2d_16">
    <path d="M 50.426619 214.047096 
L 57.312674 214.062412 
L 69.707574 214.058524 
L 93.120161 214.06621 
L 95.874583 214.054721 
L 113.778326 214.062389 
L 117.90996 214.047086 
L 119.287171 214.077754 
L 124.796015 213.514962 
L 130.304859 214.047261 
L 133.059281 213.914331 
L 135.813703 213.63289 
L 137.190914 213.366913 
L 138.568125 212.944747 
L 139.945336 212.374776 
L 141.322547 211.576752 
L 142.699758 210.311064 
L 144.076969 207.787813 
L 145.45418 202.550575 
L 146.831391 194.375989 
L 148.208602 182.780964 
L 150.963024 156.835466 
L 152.340235 146.049815 
L 153.717446 137.791673 
L 155.094657 132.512764 
L 156.471868 129.301458 
L 157.849079 128.321036 
L 159.22629 129.028084 
L 160.603501 131.148523 
L 163.357923 138.255328 
L 164.735134 142.538299 
L 166.112345 146.266662 
L 167.489556 148.512551 
L 168.866767 148.334015 
L 170.243978 144.563975 
L 171.621189 137.715608 
L 175.752823 109.729502 
L 177.130034 103.124281 
L 178.507245 99.072974 
L 179.884456 97.070224 
L 181.261667 96.545981 
L 182.638878 97.511168 
L 184.016089 99.240292 
L 189.524933 110.360385 
L 190.902144 110.976006 
L 192.279355 110.303561 
L 193.656566 108.121787 
L 195.033777 102.83913 
L 196.410988 94.771116 
L 197.788199 84.183206 
L 199.16541 75.23667 
L 200.542621 68.985265 
L 201.919832 64.808573 
L 203.297043 62.383632 
L 204.674254 61.156419 
L 206.051465 61.023229 
L 207.428676 61.635398 
L 208.805887 62.748587 
L 214.314731 69.703445 
L 215.691942 70.239249 
L 217.069153 68.878647 
L 218.446364 64.436098 
L 219.823575 57.466281 
L 221.200786 49.70954 
L 222.577997 42.671209 
L 223.955208 37.544353 
L 225.332419 34.086187 
L 226.70963 32.124974 
L 228.086841 31.251006 
L 229.464052 31.160054 
L 230.841263 31.995698 
L 232.218475 33.079007 
L 233.595686 34.679022 
L 237.727319 40.212063 
L 239.10453 41.50446 
L 240.481741 41.964298 
L 241.858952 39.494085 
L 243.236163 33.46667 
L 244.613374 26.88816 
L 245.990585 21.951141 
L 247.367796 19.104574 
L 248.745007 17.7861 
L 250.122218 17.428768 
L 251.499429 17.979924 
L 252.87664 19.055556 
L 254.253851 21.233273 
L 255.631062 24.486064 
L 257.008273 28.712152 
L 259.762695 39.140524 
L 261.139906 44.673956 
L 262.517117 49.736188 
L 263.894328 54.239614 
L 265.271539 57.808138 
L 266.64875 60.171809 
L 268.025961 61.924027 
L 269.403172 63.182076 
L 272.157594 64.713366 
L 277.666438 66.351451 
L 279.043649 66.66698 
L 280.42086 66.807668 
L 288.684127 68.570962 
L 292.81576 69.635136 
L 294.192971 69.753079 
L 295.570182 70.072222 
L 296.947393 70.52448 
L 298.324604 70.831988 
L 299.701815 71.265677 
L 301.079026 71.482047 
L 306.58787 72.888235 
L 307.965081 73.051791 
L 310.719503 73.785007 
L 312.096714 74.01311 
L 313.473925 74.404601 
L 314.851136 74.522527 
L 320.35998 75.719256 
L 321.737191 75.837253 
L 327.246035 77.04959 
L 328.623246 77.133407 
L 332.754879 78.033908 
L 334.13209 78.383651 
L 335.509301 78.501434 
L 338.263723 79.109582 
L 345.149779 80.584029 
L 346.52699 80.872902 
L 347.904201 81.507474 
L 349.281412 82.849111 
L 350.658623 84.642729 
L 352.035834 87.253744 
L 353.413045 93.539711 
L 354.790256 93.820755 
L 354.790256 93.820755 
" clip-path="url(#pc259dbe48a)" style="fill: none; stroke: #d62728; stroke-width: 1.5; stroke-linecap: square"/>
   </g>
   <g id="line2d_17">
    <path d="M 50.426619 214.733564 
L 60.067096 214.729841 
L 95.874583 214.733564 
L 105.51506 214.714609 
L 115.155537 214.718398 
L 119.287171 213.999998 
L 122.041593 213.806229 
L 123.418804 213.737926 
L 124.796015 213.988646 
L 126.173226 214.376322 
L 127.550437 214.570181 
L 128.927648 214.592985 
L 131.68207 214.277354 
L 133.059281 214.018924 
L 134.436492 214.03028 
L 135.813703 213.452783 
L 137.190914 212.399842 
L 138.568125 210.693487 
L 139.945336 207.801317 
L 141.322547 202.244824 
L 142.699758 194.41963 
L 144.076969 187.746157 
L 145.45418 183.033489 
L 146.831391 175.353035 
L 148.208602 163.267372 
L 150.963024 136.866114 
L 152.340235 126.517637 
L 153.717446 119.182755 
L 155.094657 115.260609 
L 156.471868 113.877212 
L 157.849079 115.074485 
L 159.22629 118.122446 
L 160.603501 122.249668 
L 163.357923 132.982013 
L 164.735134 136.733202 
L 166.112345 135.581456 
L 167.489556 131.465694 
L 168.866767 126.745584 
L 171.621189 113.26567 
L 172.9984 104.695505 
L 174.375612 94.837426 
L 175.752823 86.742297 
L 177.130034 80.642875 
L 178.507245 77.336355 
L 179.884456 76.051911 
L 181.261667 76.310158 
L 182.638878 77.800147 
L 184.016089 80.08773 
L 185.3933 83.170043 
L 186.770511 85.427594 
L 188.147722 84.576201 
L 189.524933 80.449007 
L 195.033777 55.290414 
L 197.788199 41.205893 
L 199.16541 35.797895 
L 200.542621 32.495453 
L 201.919832 30.617893 
L 203.297043 30.39763 
L 204.674254 31.226005 
L 206.051465 33.023638 
L 208.805887 37.869128 
L 212.93752 47.598174 
L 214.314731 49.912766 
L 215.691942 51.011158 
L 217.069153 51.086918 
L 218.446364 49.597056 
L 219.823575 47.100322 
L 222.577997 41.202068 
L 223.955208 38.910679 
L 225.332419 37.466436 
L 226.70963 37.101354 
L 228.086841 37.648705 
L 229.464052 38.439024 
L 230.841263 39.948151 
L 232.218475 41.836543 
L 233.595686 43.991515 
L 234.972897 46.458125 
L 236.350108 48.673947 
L 237.727319 50.319224 
L 239.10453 51.334027 
L 240.481741 51.041581 
L 241.858952 47.598085 
L 243.236163 41.836973 
L 244.613374 36.847013 
L 245.990585 33.187038 
L 247.367796 31.153765 
L 248.745007 30.321619 
L 250.122218 30.428078 
L 251.499429 31.248897 
L 252.87664 32.666325 
L 254.253851 35.106319 
L 255.631062 38.606584 
L 257.008273 42.828557 
L 259.762695 52.542699 
L 261.139906 57.460127 
L 262.517117 61.853557 
L 263.894328 65.551388 
L 265.271539 68.424675 
L 266.64875 70.305696 
L 268.025961 71.981667 
L 269.403172 73.289252 
L 272.157594 75.261291 
L 276.289227 77.013294 
L 283.175282 79.012527 
L 284.552493 79.320399 
L 285.929704 79.787733 
L 288.684127 80.403308 
L 290.061338 80.863221 
L 295.570182 82.314792 
L 296.947393 82.850962 
L 298.324604 83.204108 
L 299.701815 83.713505 
L 302.456237 84.41273 
L 303.833448 84.880147 
L 305.210659 85.169198 
L 306.58787 85.621319 
L 307.965081 85.815139 
L 313.473925 87.331493 
L 314.851136 87.475821 
L 317.605558 88.163907 
L 325.868824 89.733127 
L 327.246035 90.041422 
L 328.623246 90.143845 
L 341.018145 92.401163 
L 342.395356 92.553315 
L 346.52699 93.393178 
L 347.904201 94.016658 
L 349.281412 95.076827 
L 350.658623 96.463878 
L 352.035834 98.443915 
L 353.413045 103.247626 
L 354.790256 103.490791 
L 354.790256 103.490791 
" clip-path="url(#pc259dbe48a)" style="fill: none; stroke: #9467bd; stroke-width: 1.5; stroke-linecap: square"/>
   </g>
   <g id="patch_3">
    <path d="M 35.208438 224.64 
L 35.208438 7.2 
" style="fill: none; stroke: #000000; stroke-width: 0.8; stroke-linejoin: miter; stroke-linecap: square"/>
   </g>
   <g id="patch_4">
    <path d="M 370.008438 224.64 
L 370.008438 7.2 
" style="fill: none; stroke: #000000; stroke-width: 0.8; stroke-linejoin: miter; stroke-linecap: square"/>
   </g>
   <g id="patch_5">
    <path d="M 35.208438 224.64 
L 370.008438 224.64 
" style="fill: none; stroke: #000000; stroke-width: 0.8; stroke-linejoin: miter; stroke-linecap: square"/>
   </g>
   <g id="patch_6">
    <path d="M 35.208438 7.2 
L 370.008438 7.2 
" style="fill: none; stroke: #000000; stroke-width: 0.8; stroke-linejoin: miter; stroke-linecap: square"/>
   </g>
   <g id="legend_1">
    <g id="patch_7">
     <path d="M 199.6975 219.64 
L 363.008438 219.64 
Q 365.008438 219.64 365.008438 217.64 
L 365.008438 145.249375 
Q 365.008438 143.249375 363.008438 143.249375 
L 199.6975 143.249375 
Q 197.6975 143.249375 197.6975 145.249375 
L 197.6975 217.64 
Q 197.6975 219.64 199.6975 219.64 
z
" style="fill: #ffffff; opacity: 0.8; stroke: #cccccc; stroke-linejoin: miter"/>
    </g>
    <g id="line2d_18">
     <path d="M 201.6975 151.347813 
L 211.6975 151.347813 
L 221.6975 151.347813 
" style="fill: none; stroke: #1f77b4; stroke-width: 1.5; stroke-linecap: square"/>
    </g>
    <g id="text_15">
     <!-- Gebohrt -->
     <g transform="translate(229.6975 154.847813)scale(0.1 -0.1)">
      <defs>
       <path id="DejaVuSans-47" d="M 3809 666 
L 3809 1919 
L 2778 1919 
L 2778 2438 
L 4434 2438 
L 4434 434 
Q 4069 175 3628 42 
Q 3188 -91 2688 -91 
Q 1594 -91 976 548 
Q 359 1188 359 2328 
Q 359 3472 976 4111 
Q 1594 4750 2688 4750 
Q 3144 4750 3555 4637 
Q 3966 4525 4313 4306 
L 4313 3634 
Q 3963 3931 3569 4081 
Q 3175 4231 2741 4231 
Q 1884 4231 1454 3753 
Q 1025 3275 1025 2328 
Q 1025 1384 1454 906 
Q 1884 428 2741 428 
Q 3075 428 3337 486 
Q 3600 544 3809 666 
z
" transform="scale(0.015625)"/>
       <path id="DejaVuSans-62" d="M 3116 1747 
Q 3116 2381 2855 2742 
Q 2594 3103 2138 3103 
Q 1681 3103 1420 2742 
Q 1159 2381 1159 1747 
Q 1159 1113 1420 752 
Q 1681 391 2138 391 
Q 2594 391 2855 752 
Q 3116 1113 3116 1747 
z
M 1159 2969 
Q 1341 3281 1617 3432 
Q 1894 3584 2278 3584 
Q 2916 3584 3314 3078 
Q 3713 2572 3713 1747 
Q 3713 922 3314 415 
Q 2916 -91 2278 -91 
Q 1894 -91 1617 61 
Q 1341 213 1159 525 
L 1159 0 
L 581 0 
L 581 4863 
L 1159 4863 
L 1159 2969 
z
" transform="scale(0.015625)"/>
       <path id="DejaVuSans-6f" d="M 1959 3097 
Q 1497 3097 1228 2736 
Q 959 2375 959 1747 
Q 959 1119 1226 758 
Q 1494 397 1959 397 
Q 2419 397 2687 759 
Q 2956 1122 2956 1747 
Q 2956 2369 2687 2733 
Q 2419 3097 1959 3097 
z
M 1959 3584 
Q 2709 3584 3137 3096 
Q 3566 2609 3566 1747 
Q 3566 888 3137 398 
Q 2709 -91 1959 -91 
Q 1206 -91 779 398 
Q 353 888 353 1747 
Q 353 2609 779 3096 
Q 1206 3584 1959 3584 
z
" transform="scale(0.015625)"/>
       <path id="DejaVuSans-68" d="M 3513 2113 
L 3513 0 
L 2938 0 
L 2938 2094 
Q 2938 2591 2744 2837 
Q 2550 3084 2163 3084 
Q 1697 3084 1428 2787 
Q 1159 2491 1159 1978 
L 1159 0 
L 581 0 
L 581 4863 
L 1159 4863 
L 1159 2956 
Q 1366 3272 1645 3428 
Q 1925 3584 2291 3584 
Q 2894 3584 3203 3211 
Q 3513 2838 3513 2113 
z
" transform="scale(0.015625)"/>
      </defs>
      <use xlink:href="#DejaVuSans-47"/>
      <use xlink:href="#DejaVuSans-65" x="77.490234"/>
      <use xlink:href="#DejaVuSans-62" x="139.013672"/>
      <use xlink:href="#DejaVuSans-6f" x="202.490234"/>
      <use xlink:href="#DejaVuSans-68" x="263.671875"/>
      <use xlink:href="#DejaVuSans-72" x="327.050781"/>
      <use xlink:href="#DejaVuSans-74" x="368.164062"/>
     </g>
    </g>
    <g id="line2d_19">
     <path d="M 201.6975 166.025937 
L 211.6975 166.025937 
L 221.6975 166.025937 
" style="fill: none; stroke: #ff7f0e; stroke-width: 1.5; stroke-linecap: square"/>
    </g>
    <g id="text_16">
     <!-- GeoelterStift -->
     <g transform="translate(229.6975 169.525937)scale(0.1 -0.1)">
      <defs>
       <path id="DejaVuSans-6c" d="M 603 4863 
L 1178 4863 
L 1178 0 
L 603 0 
L 603 4863 
z
" transform="scale(0.015625)"/>
       <path id="DejaVuSans-53" d="M 3425 4513 
L 3425 3897 
Q 3066 4069 2747 4153 
Q 2428 4238 2131 4238 
Q 1616 4238 1336 4038 
Q 1056 3838 1056 3469 
Q 1056 3159 1242 3001 
Q 1428 2844 1947 2747 
L 2328 2669 
Q 3034 2534 3370 2195 
Q 3706 1856 3706 1288 
Q 3706 609 3251 259 
Q 2797 -91 1919 -91 
Q 1588 -91 1214 -16 
Q 841 59 441 206 
L 441 856 
Q 825 641 1194 531 
Q 1563 422 1919 422 
Q 2459 422 2753 634 
Q 3047 847 3047 1241 
Q 3047 1584 2836 1778 
Q 2625 1972 2144 2069 
L 1759 2144 
Q 1053 2284 737 2584 
Q 422 2884 422 3419 
Q 422 4038 858 4394 
Q 1294 4750 2059 4750 
Q 2388 4750 2728 4690 
Q 3069 4631 3425 4513 
z
" transform="scale(0.015625)"/>
       <path id="DejaVuSans-69" d="M 603 3500 
L 1178 3500 
L 1178 0 
L 603 0 
L 603 3500 
z
M 603 4863 
L 1178 4863 
L 1178 4134 
L 603 4134 
L 603 4863 
z
" transform="scale(0.015625)"/>
      </defs>
      <use xlink:href="#DejaVuSans-47"/>
      <use xlink:href="#DejaVuSans-65" x="77.490234"/>
      <use xlink:href="#DejaVuSans-6f" x="139.013672"/>
      <use xlink:href="#DejaVuSans-65" x="200.195312"/>
      <use xlink:href="#DejaVuSans-6c" x="261.71875"/>
      <use xlink:href="#DejaVuSans-74" x="289.501953"/>
      <use xlink:href="#DejaVuSans-65" x="328.710938"/>
      <use xlink:href="#DejaVuSans-72" x="390.234375"/>
      <use xlink:href="#DejaVuSans-53" x="431.347656"/>
      <use xlink:href="#DejaVuSans-74" x="494.824219"/>
      <use xlink:href="#DejaVuSans-69" x="534.033203"/>
      <use xlink:href="#DejaVuSans-66" x="561.816406"/>
      <use xlink:href="#DejaVuSans-74" x="595.271484"/>
     </g>
    </g>
    <g id="line2d_20">
     <path d="M 201.6975 180.704063 
L 211.6975 180.704063 
L 221.6975 180.704063 
" style="fill: none; stroke: #2ca02c; stroke-width: 1.5; stroke-linecap: square"/>
    </g>
    <g id="text_17">
     <!-- Referenz -->
     <g transform="translate(229.6975 184.204063)scale(0.1 -0.1)">
      <defs>
       <path id="DejaVuSans-52" d="M 2841 2188 
Q 3044 2119 3236 1894 
Q 3428 1669 3622 1275 
L 4263 0 
L 3584 0 
L 2988 1197 
Q 2756 1666 2539 1819 
Q 2322 1972 1947 1972 
L 1259 1972 
L 1259 0 
L 628 0 
L 628 4666 
L 2053 4666 
Q 2853 4666 3247 4331 
Q 3641 3997 3641 3322 
Q 3641 2881 3436 2590 
Q 3231 2300 2841 2188 
z
M 1259 4147 
L 1259 2491 
L 2053 2491 
Q 2509 2491 2742 2702 
Q 2975 2913 2975 3322 
Q 2975 3731 2742 3939 
Q 2509 4147 2053 4147 
L 1259 4147 
z
" transform="scale(0.015625)"/>
       <path id="DejaVuSans-6e" d="M 3513 2113 
L 3513 0 
L 2938 0 
L 2938 2094 
Q 2938 2591 2744 2837 
Q 2550 3084 2163 3084 
Q 1697 3084 1428 2787 
Q 1159 2491 1159 1978 
L 1159 0 
L 581 0 
L 581 3500 
L 1159 3500 
L 1159 2956 
Q 1366 3272 1645 3428 
Q 1925 3584 2291 3584 
Q 2894 3584 3203 3211 
Q 3513 2838 3513 2113 
z
" transform="scale(0.015625)"/>
       <path id="DejaVuSans-7a" d="M 353 3500 
L 3084 3500 
L 3084 2975 
L 922 459 
L 3084 459 
L 3084 0 
L 275 0 
L 275 525 
L 2438 3041 
L 353 3041 
L 353 3500 
z
" transform="scale(0.015625)"/>
      </defs>
      <use xlink:href="#DejaVuSans-52"/>
      <use xlink:href="#DejaVuSans-65" x="64.982422"/>
      <use xlink:href="#DejaVuSans-66" x="126.505859"/>
      <use xlink:href="#DejaVuSans-65" x="161.710938"/>
      <use xlink:href="#DejaVuSans-72" x="223.234375"/>
      <use xlink:href="#DejaVuSans-65" x="262.097656"/>
      <use xlink:href="#DejaVuSans-6e" x="323.621094"/>
      <use xlink:href="#DejaVuSans-7a" x="387"/>
     </g>
    </g>
    <g id="line2d_21">
     <path d="M 201.6975 195.382188 
L 211.6975 195.382188 
L 221.6975 195.382188 
" style="fill: none; stroke: #d62728; stroke-width: 1.5; stroke-linecap: square"/>
    </g>
    <g id="text_18">
     <!-- UnzureichendeVerklebung -->
     <g transform="translate(229.6975 198.882188)scale(0.1 -0.1)">
      <defs>
       <path id="DejaVuSans-55" d="M 556 4666 
L 1191 4666 
L 1191 1831 
Q 1191 1081 1462 751 
Q 1734 422 2344 422 
Q 2950 422 3222 751 
Q 3494 1081 3494 1831 
L 3494 4666 
L 4128 4666 
L 4128 1753 
Q 4128 841 3676 375 
Q 3225 -91 2344 -91 
Q 1459 -91 1007 375 
Q 556 841 556 1753 
L 556 4666 
z
" transform="scale(0.015625)"/>
       <path id="DejaVuSans-75" d="M 544 1381 
L 544 3500 
L 1119 3500 
L 1119 1403 
Q 1119 906 1312 657 
Q 1506 409 1894 409 
Q 2359 409 2629 706 
Q 2900 1003 2900 1516 
L 2900 3500 
L 3475 3500 
L 3475 0 
L 2900 0 
L 2900 538 
Q 2691 219 2414 64 
Q 2138 -91 1772 -91 
Q 1169 -91 856 284 
Q 544 659 544 1381 
z
M 1991 3584 
L 1991 3584 
z
" transform="scale(0.015625)"/>
       <path id="DejaVuSans-63" d="M 3122 3366 
L 3122 2828 
Q 2878 2963 2633 3030 
Q 2388 3097 2138 3097 
Q 1578 3097 1268 2742 
Q 959 2388 959 1747 
Q 959 1106 1268 751 
Q 1578 397 2138 397 
Q 2388 397 2633 464 
Q 2878 531 3122 666 
L 3122 134 
Q 2881 22 2623 -34 
Q 2366 -91 2075 -91 
Q 1284 -91 818 406 
Q 353 903 353 1747 
Q 353 2603 823 3093 
Q 1294 3584 2113 3584 
Q 2378 3584 2631 3529 
Q 2884 3475 3122 3366 
z
" transform="scale(0.015625)"/>
       <path id="DejaVuSans-64" d="M 2906 2969 
L 2906 4863 
L 3481 4863 
L 3481 0 
L 2906 0 
L 2906 525 
Q 2725 213 2448 61 
Q 2172 -91 1784 -91 
Q 1150 -91 751 415 
Q 353 922 353 1747 
Q 353 2572 751 3078 
Q 1150 3584 1784 3584 
Q 2172 3584 2448 3432 
Q 2725 3281 2906 2969 
z
M 947 1747 
Q 947 1113 1208 752 
Q 1469 391 1925 391 
Q 2381 391 2643 752 
Q 2906 1113 2906 1747 
Q 2906 2381 2643 2742 
Q 2381 3103 1925 3103 
Q 1469 3103 1208 2742 
Q 947 2381 947 1747 
z
" transform="scale(0.015625)"/>
       <path id="DejaVuSans-56" d="M 1831 0 
L 50 4666 
L 709 4666 
L 2188 738 
L 3669 4666 
L 4325 4666 
L 2547 0 
L 1831 0 
z
" transform="scale(0.015625)"/>
       <path id="DejaVuSans-6b" d="M 581 4863 
L 1159 4863 
L 1159 1991 
L 2875 3500 
L 3609 3500 
L 1753 1863 
L 3688 0 
L 2938 0 
L 1159 1709 
L 1159 0 
L 581 0 
L 581 4863 
z
" transform="scale(0.015625)"/>
      </defs>
      <use xlink:href="#DejaVuSans-55"/>
      <use xlink:href="#DejaVuSans-6e" x="73.193359"/>
      <use xlink:href="#DejaVuSans-7a" x="136.572266"/>
      <use xlink:href="#DejaVuSans-75" x="189.0625"/>
      <use xlink:href="#DejaVuSans-72" x="252.441406"/>
      <use xlink:href="#DejaVuSans-65" x="291.304688"/>
      <use xlink:href="#DejaVuSans-69" x="352.828125"/>
      <use xlink:href="#DejaVuSans-63" x="380.611328"/>
      <use xlink:href="#DejaVuSans-68" x="435.591797"/>
      <use xlink:href="#DejaVuSans-65" x="498.970703"/>
      <use xlink:href="#DejaVuSans-6e" x="560.494141"/>
      <use xlink:href="#DejaVuSans-64" x="623.873047"/>
      <use xlink:href="#DejaVuSans-65" x="687.349609"/>
      <use xlink:href="#DejaVuSans-56" x="748.873047"/>
      <use xlink:href="#DejaVuSans-65" x="809.53125"/>
      <use xlink:href="#DejaVuSans-72" x="871.054688"/>
      <use xlink:href="#DejaVuSans-6b" x="912.167969"/>
      <use xlink:href="#DejaVuSans-6c" x="970.078125"/>
      <use xlink:href="#DejaVuSans-65" x="997.861328"/>
      <use xlink:href="#DejaVuSans-62" x="1059.384766"/>
      <use xlink:href="#DejaVuSans-75" x="1122.861328"/>
      <use xlink:href="#DejaVuSans-6e" x="1186.240234"/>
      <use xlink:href="#DejaVuSans-67" x="1249.619141"/>
     </g>
    </g>
    <g id="line2d_22">
     <path d="M 201.6975 210.060313 
L 211.6975 210.060313 
L 221.6975 210.060313 
" style="fill: none; stroke: #9467bd; stroke-width: 1.5; stroke-linecap: square"/>
    </g>
    <g id="text_19">
     <!-- Versatz -->
     <g transform="translate(229.6975 213.560313)scale(0.1 -0.1)">
      <defs>
       <path id="DejaVuSans-73" d="M 2834 3397 
L 2834 2853 
Q 2591 2978 2328 3040 
Q 2066 3103 1784 3103 
Q 1356 3103 1142 2972 
Q 928 2841 928 2578 
Q 928 2378 1081 2264 
Q 1234 2150 1697 2047 
L 1894 2003 
Q 2506 1872 2764 1633 
Q 3022 1394 3022 966 
Q 3022 478 2636 193 
Q 2250 -91 1575 -91 
Q 1294 -91 989 -36 
Q 684 19 347 128 
L 347 722 
Q 666 556 975 473 
Q 1284 391 1588 391 
Q 1994 391 2212 530 
Q 2431 669 2431 922 
Q 2431 1156 2273 1281 
Q 2116 1406 1581 1522 
L 1381 1569 
Q 847 1681 609 1914 
Q 372 2147 372 2553 
Q 372 3047 722 3315 
Q 1072 3584 1716 3584 
Q 2034 3584 2315 3537 
Q 2597 3491 2834 3397 
z
" transform="scale(0.015625)"/>
      </defs>
      <use xlink:href="#DejaVuSans-56"/>
      <use xlink:href="#DejaVuSans-65" x="60.658203"/>
      <use xlink:href="#DejaVuSans-72" x="122.181641"/>
      <use xlink:href="#DejaVuSans-73" x="163.294922"/>
      <use xlink:href="#DejaVuSans-61" x="215.394531"/>
      <use xlink:href="#DejaVuSans-74" x="276.673828"/>
      <use xlink:href="#DejaVuSans-7a" x="315.882812"/>
     </g>
    </g>
   </g>
  </g>
 </g>
 <defs>
  <clipPath id="pc259dbe48a">
   <rect x="35.208438" y="7.2" width="334.8" height="217.44"/>
  </clipPath>
 </defs>
</svg>
