<?xml version="1.0" encoding="utf-8" standalone="no"?>
<!DOCTYPE svg PUBLIC "-//W3C//DTD SVG 1.1//EN"
  "http://www.w3.org/Graphics/SVG/1.1/DTD/svg11.dtd">
<svg xmlns:xlink="http://www.w3.org/1999/xlink" width="460.8pt" height="345.6pt" viewBox="0 0 460.8 345.6" xmlns="http://www.w3.org/2000/svg" version="1.1">
 <metadata>
  <rdf:RDF xmlns:dc="http://purl.org/dc/elements/1.1/" xmlns:cc="http://creativecommons.org/ns#" xmlns:rdf="http://www.w3.org/1999/02/22-rdf-syntax-ns#">
   <cc:Work>
    <dc:type rdf:resource="http://purl.org/dc/dcmitype/StillImage"/>
    <dc:date>2022-03-14T01:20:37.778750</dc:date>
    <dc:format>image/svg+xml</dc:format>
    <dc:creator>
     <cc:Agent>
      <dc:title>Matplotlib v3.5.1, https://matplotlib.org/</dc:title>
     </cc:Agent>
    </dc:creator>
   </cc:Work>
  </rdf:RDF>
 </metadata>
 <defs>
  <style type="text/css">*{stroke-linejoin: round; stroke-linecap: butt}</style>
 </defs>
 <g id="figure_1">
  <g id="patch_1">
   <path d="M 0 345.6 
L 460.8 345.6 
L 460.8 0 
L 0 0 
z
" style="fill: #ffffff"/>
  </g>
  <g id="axes_1">
   <g id="patch_2">
    <path d="M 57.6 307.584 
L 414.72 307.584 
L 414.72 41.472 
L 57.6 41.472 
z
" style="fill: #ffffff"/>
   </g>
   <g id="matplotlib.axis_1">
    <g id="xtick_1">
     <g id="line2d_1">
      <defs>
       <path id="m9c83558477" d="M 0 0 
L 0 3.5 
" style="stroke: #000000; stroke-width: 0.8"/>
      </defs>
      <g>
       <use xlink:href="#m9c83558477" x="73.832727" y="307.584" style="stroke: #000000; stroke-width: 0.8"/>
      </g>
     </g>
     <g id="text_1">
      <!-- 1e-07 -->
      <g transform="translate(59.408509 322.182437)scale(0.1 -0.1)">
       <defs>
        <path id="DejaVuSans-31" d="M 794 531 
L 1825 531 
L 1825 4091 
L 703 3866 
L 703 4441 
L 1819 4666 
L 2450 4666 
L 2450 531 
L 3481 531 
L 3481 0 
L 794 0 
L 794 531 
z
" transform="scale(0.015625)"/>
        <path id="DejaVuSans-65" d="M 3597 1894 
L 3597 1613 
L 953 1613 
Q 991 1019 1311 708 
Q 1631 397 2203 397 
Q 2534 397 2845 478 
Q 3156 559 3463 722 
L 3463 178 
Q 3153 47 2828 -22 
Q 2503 -91 2169 -91 
Q 1331 -91 842 396 
Q 353 884 353 1716 
Q 353 2575 817 3079 
Q 1281 3584 2069 3584 
Q 2775 3584 3186 3129 
Q 3597 2675 3597 1894 
z
M 3022 2063 
Q 3016 2534 2758 2815 
Q 2500 3097 2075 3097 
Q 1594 3097 1305 2825 
Q 1016 2553 972 2059 
L 3022 2063 
z
" transform="scale(0.015625)"/>
        <path id="DejaVuSans-2d" d="M 313 2009 
L 1997 2009 
L 1997 1497 
L 313 1497 
L 313 2009 
z
" transform="scale(0.015625)"/>
        <path id="DejaVuSans-30" d="M 2034 4250 
Q 1547 4250 1301 3770 
Q 1056 3291 1056 2328 
Q 1056 1369 1301 889 
Q 1547 409 2034 409 
Q 2525 409 2770 889 
Q 3016 1369 3016 2328 
Q 3016 3291 2770 3770 
Q 2525 4250 2034 4250 
z
M 2034 4750 
Q 2819 4750 3233 4129 
Q 3647 3509 3647 2328 
Q 3647 1150 3233 529 
Q 2819 -91 2034 -91 
Q 1250 -91 836 529 
Q 422 1150 422 2328 
Q 422 3509 836 4129 
Q 1250 4750 2034 4750 
z
" transform="scale(0.015625)"/>
        <path id="DejaVuSans-37" d="M 525 4666 
L 3525 4666 
L 3525 4397 
L 1831 0 
L 1172 0 
L 2766 4134 
L 525 4134 
L 525 4666 
z
" transform="scale(0.015625)"/>
       </defs>
       <use xlink:href="#DejaVuSans-31"/>
       <use xlink:href="#DejaVuSans-65" x="63.623047"/>
       <use xlink:href="#DejaVuSans-2d" x="125.146484"/>
       <use xlink:href="#DejaVuSans-30" x="161.230469"/>
       <use xlink:href="#DejaVuSans-37" x="224.853516"/>
      </g>
     </g>
    </g>
    <g id="xtick_2">
     <g id="line2d_2">
      <g>
       <use xlink:href="#m9c83558477" x="135.569773" y="307.584" style="stroke: #000000; stroke-width: 0.8"/>
      </g>
     </g>
     <g id="text_2">
      <!-- 1e-06 -->
      <g transform="translate(121.145554 322.182437)scale(0.1 -0.1)">
       <defs>
        <path id="DejaVuSans-36" d="M 2113 2584 
Q 1688 2584 1439 2293 
Q 1191 2003 1191 1497 
Q 1191 994 1439 701 
Q 1688 409 2113 409 
Q 2538 409 2786 701 
Q 3034 994 3034 1497 
Q 3034 2003 2786 2293 
Q 2538 2584 2113 2584 
z
M 3366 4563 
L 3366 3988 
Q 3128 4100 2886 4159 
Q 2644 4219 2406 4219 
Q 1781 4219 1451 3797 
Q 1122 3375 1075 2522 
Q 1259 2794 1537 2939 
Q 1816 3084 2150 3084 
Q 2853 3084 3261 2657 
Q 3669 2231 3669 1497 
Q 3669 778 3244 343 
Q 2819 -91 2113 -91 
Q 1303 -91 875 529 
Q 447 1150 447 2328 
Q 447 3434 972 4092 
Q 1497 4750 2381 4750 
Q 2619 4750 2861 4703 
Q 3103 4656 3366 4563 
z
" transform="scale(0.015625)"/>
       </defs>
       <use xlink:href="#DejaVuSans-31"/>
       <use xlink:href="#DejaVuSans-65" x="63.623047"/>
       <use xlink:href="#DejaVuSans-2d" x="125.146484"/>
       <use xlink:href="#DejaVuSans-30" x="161.230469"/>
       <use xlink:href="#DejaVuSans-36" x="224.853516"/>
      </g>
     </g>
    </g>
    <g id="xtick_3">
     <g id="line2d_3">
      <g>
       <use xlink:href="#m9c83558477" x="197.306819" y="307.584" style="stroke: #000000; stroke-width: 0.8"/>
      </g>
     </g>
     <g id="text_3">
      <!-- 1e-05 -->
      <g transform="translate(182.8826 322.182437)scale(0.1 -0.1)">
       <defs>
        <path id="DejaVuSans-35" d="M 691 4666 
L 3169 4666 
L 3169 4134 
L 1269 4134 
L 1269 2991 
Q 1406 3038 1543 3061 
Q 1681 3084 1819 3084 
Q 2600 3084 3056 2656 
Q 3513 2228 3513 1497 
Q 3513 744 3044 326 
Q 2575 -91 1722 -91 
Q 1428 -91 1123 -41 
Q 819 9 494 109 
L 494 744 
Q 775 591 1075 516 
Q 1375 441 1709 441 
Q 2250 441 2565 725 
Q 2881 1009 2881 1497 
Q 2881 1984 2565 2268 
Q 2250 2553 1709 2553 
Q 1456 2553 1204 2497 
Q 953 2441 691 2322 
L 691 4666 
z
" transform="scale(0.015625)"/>
       </defs>
       <use xlink:href="#DejaVuSans-31"/>
       <use xlink:href="#DejaVuSans-65" x="63.623047"/>
       <use xlink:href="#DejaVuSans-2d" x="125.146484"/>
       <use xlink:href="#DejaVuSans-30" x="161.230469"/>
       <use xlink:href="#DejaVuSans-35" x="224.853516"/>
      </g>
     </g>
    </g>
    <g id="xtick_4">
     <g id="line2d_4">
      <g>
       <use xlink:href="#m9c83558477" x="259.043865" y="307.584" style="stroke: #000000; stroke-width: 0.8"/>
      </g>
     </g>
     <g id="text_4">
      <!-- 1e-04 -->
      <g transform="translate(244.619646 322.182437)scale(0.1 -0.1)">
       <defs>
        <path id="DejaVuSans-34" d="M 2419 4116 
L 825 1625 
L 2419 1625 
L 2419 4116 
z
M 2253 4666 
L 3047 4666 
L 3047 1625 
L 3713 1625 
L 3713 1100 
L 3047 1100 
L 3047 0 
L 2419 0 
L 2419 1100 
L 313 1100 
L 313 1709 
L 2253 4666 
z
" transform="scale(0.015625)"/>
       </defs>
       <use xlink:href="#DejaVuSans-31"/>
       <use xlink:href="#DejaVuSans-65" x="63.623047"/>
       <use xlink:href="#DejaVuSans-2d" x="125.146484"/>
       <use xlink:href="#DejaVuSans-30" x="161.230469"/>
       <use xlink:href="#DejaVuSans-34" x="224.853516"/>
      </g>
     </g>
    </g>
    <g id="xtick_5">
     <g id="line2d_5">
      <g>
       <use xlink:href="#m9c83558477" x="320.780911" y="307.584" style="stroke: #000000; stroke-width: 0.8"/>
      </g>
     </g>
     <g id="text_5">
      <!-- 1e-03 -->
      <g transform="translate(306.356692 322.182437)scale(0.1 -0.1)">
       <defs>
        <path id="DejaVuSans-33" d="M 2597 2516 
Q 3050 2419 3304 2112 
Q 3559 1806 3559 1356 
Q 3559 666 3084 287 
Q 2609 -91 1734 -91 
Q 1441 -91 1130 -33 
Q 819 25 488 141 
L 488 750 
Q 750 597 1062 519 
Q 1375 441 1716 441 
Q 2309 441 2620 675 
Q 2931 909 2931 1356 
Q 2931 1769 2642 2001 
Q 2353 2234 1838 2234 
L 1294 2234 
L 1294 2753 
L 1863 2753 
Q 2328 2753 2575 2939 
Q 2822 3125 2822 3475 
Q 2822 3834 2567 4026 
Q 2313 4219 1838 4219 
Q 1578 4219 1281 4162 
Q 984 4106 628 3988 
L 628 4550 
Q 988 4650 1302 4700 
Q 1616 4750 1894 4750 
Q 2613 4750 3031 4423 
Q 3450 4097 3450 3541 
Q 3450 3153 3228 2886 
Q 3006 2619 2597 2516 
z
" transform="scale(0.015625)"/>
       </defs>
       <use xlink:href="#DejaVuSans-31"/>
       <use xlink:href="#DejaVuSans-65" x="63.623047"/>
       <use xlink:href="#DejaVuSans-2d" x="125.146484"/>
       <use xlink:href="#DejaVuSans-30" x="161.230469"/>
       <use xlink:href="#DejaVuSans-33" x="224.853516"/>
      </g>
     </g>
    </g>
    <g id="xtick_6">
     <g id="line2d_6">
      <g>
       <use xlink:href="#m9c83558477" x="382.517957" y="307.584" style="stroke: #000000; stroke-width: 0.8"/>
      </g>
     </g>
     <g id="text_6">
      <!-- 1e-02 -->
      <g transform="translate(368.093738 322.182437)scale(0.1 -0.1)">
       <defs>
        <path id="DejaVuSans-32" d="M 1228 531 
L 3431 531 
L 3431 0 
L 469 0 
L 469 531 
Q 828 903 1448 1529 
Q 2069 2156 2228 2338 
Q 2531 2678 2651 2914 
Q 2772 3150 2772 3378 
Q 2772 3750 2511 3984 
Q 2250 4219 1831 4219 
Q 1534 4219 1204 4116 
Q 875 4013 500 3803 
L 500 4441 
Q 881 4594 1212 4672 
Q 1544 4750 1819 4750 
Q 2544 4750 2975 4387 
Q 3406 4025 3406 3419 
Q 3406 3131 3298 2873 
Q 3191 2616 2906 2266 
Q 2828 2175 2409 1742 
Q 1991 1309 1228 531 
z
" transform="scale(0.015625)"/>
       </defs>
       <use xlink:href="#DejaVuSans-31"/>
       <use xlink:href="#DejaVuSans-65" x="63.623047"/>
       <use xlink:href="#DejaVuSans-2d" x="125.146484"/>
       <use xlink:href="#DejaVuSans-30" x="161.230469"/>
       <use xlink:href="#DejaVuSans-32" x="224.853516"/>
      </g>
     </g>
    </g>
    <g id="xtick_7">
     <g id="line2d_7">
      <defs>
       <path id="mccba4b2c02" d="M 0 0 
L 0 2 
" style="stroke: #000000; stroke-width: 0.6"/>
      </defs>
      <g>
       <use xlink:href="#mccba4b2c02" x="60.136441" y="307.584" style="stroke: #000000; stroke-width: 0.6"/>
      </g>
     </g>
    </g>
    <g id="xtick_8">
     <g id="line2d_8">
      <g>
       <use xlink:href="#mccba4b2c02" x="64.269538" y="307.584" style="stroke: #000000; stroke-width: 0.6"/>
      </g>
     </g>
    </g>
    <g id="xtick_9">
     <g id="line2d_9">
      <g>
       <use xlink:href="#mccba4b2c02" x="67.849789" y="307.584" style="stroke: #000000; stroke-width: 0.6"/>
      </g>
     </g>
    </g>
    <g id="xtick_10">
     <g id="line2d_10">
      <g>
       <use xlink:href="#mccba4b2c02" x="71.007795" y="307.584" style="stroke: #000000; stroke-width: 0.6"/>
      </g>
     </g>
    </g>
    <g id="xtick_11">
     <g id="line2d_11">
      <g>
       <use xlink:href="#mccba4b2c02" x="92.41743" y="307.584" style="stroke: #000000; stroke-width: 0.6"/>
      </g>
     </g>
    </g>
    <g id="xtick_12">
     <g id="line2d_12">
      <g>
       <use xlink:href="#mccba4b2c02" x="103.288784" y="307.584" style="stroke: #000000; stroke-width: 0.6"/>
      </g>
     </g>
    </g>
    <g id="xtick_13">
     <g id="line2d_13">
      <g>
       <use xlink:href="#mccba4b2c02" x="111.002133" y="307.584" style="stroke: #000000; stroke-width: 0.6"/>
      </g>
     </g>
    </g>
    <g id="xtick_14">
     <g id="line2d_14">
      <g>
       <use xlink:href="#mccba4b2c02" x="116.985071" y="307.584" style="stroke: #000000; stroke-width: 0.6"/>
      </g>
     </g>
    </g>
    <g id="xtick_15">
     <g id="line2d_15">
      <g>
       <use xlink:href="#mccba4b2c02" x="121.873487" y="307.584" style="stroke: #000000; stroke-width: 0.6"/>
      </g>
     </g>
    </g>
    <g id="xtick_16">
     <g id="line2d_16">
      <g>
       <use xlink:href="#mccba4b2c02" x="126.006584" y="307.584" style="stroke: #000000; stroke-width: 0.6"/>
      </g>
     </g>
    </g>
    <g id="xtick_17">
     <g id="line2d_17">
      <g>
       <use xlink:href="#mccba4b2c02" x="129.586835" y="307.584" style="stroke: #000000; stroke-width: 0.6"/>
      </g>
     </g>
    </g>
    <g id="xtick_18">
     <g id="line2d_18">
      <g>
       <use xlink:href="#mccba4b2c02" x="132.744841" y="307.584" style="stroke: #000000; stroke-width: 0.6"/>
      </g>
     </g>
    </g>
    <g id="xtick_19">
     <g id="line2d_19">
      <g>
       <use xlink:href="#mccba4b2c02" x="154.154476" y="307.584" style="stroke: #000000; stroke-width: 0.6"/>
      </g>
     </g>
    </g>
    <g id="xtick_20">
     <g id="line2d_20">
      <g>
       <use xlink:href="#mccba4b2c02" x="165.02583" y="307.584" style="stroke: #000000; stroke-width: 0.6"/>
      </g>
     </g>
    </g>
    <g id="xtick_21">
     <g id="line2d_21">
      <g>
       <use xlink:href="#mccba4b2c02" x="172.739179" y="307.584" style="stroke: #000000; stroke-width: 0.6"/>
      </g>
     </g>
    </g>
    <g id="xtick_22">
     <g id="line2d_22">
      <g>
       <use xlink:href="#mccba4b2c02" x="178.722116" y="307.584" style="stroke: #000000; stroke-width: 0.6"/>
      </g>
     </g>
    </g>
    <g id="xtick_23">
     <g id="line2d_23">
      <g>
       <use xlink:href="#mccba4b2c02" x="183.610533" y="307.584" style="stroke: #000000; stroke-width: 0.6"/>
      </g>
     </g>
    </g>
    <g id="xtick_24">
     <g id="line2d_24">
      <g>
       <use xlink:href="#mccba4b2c02" x="187.74363" y="307.584" style="stroke: #000000; stroke-width: 0.6"/>
      </g>
     </g>
    </g>
    <g id="xtick_25">
     <g id="line2d_25">
      <g>
       <use xlink:href="#mccba4b2c02" x="191.323881" y="307.584" style="stroke: #000000; stroke-width: 0.6"/>
      </g>
     </g>
    </g>
    <g id="xtick_26">
     <g id="line2d_26">
      <g>
       <use xlink:href="#mccba4b2c02" x="194.481887" y="307.584" style="stroke: #000000; stroke-width: 0.6"/>
      </g>
     </g>
    </g>
    <g id="xtick_27">
     <g id="line2d_27">
      <g>
       <use xlink:href="#mccba4b2c02" x="215.891522" y="307.584" style="stroke: #000000; stroke-width: 0.6"/>
      </g>
     </g>
    </g>
    <g id="xtick_28">
     <g id="line2d_28">
      <g>
       <use xlink:href="#mccba4b2c02" x="226.762876" y="307.584" style="stroke: #000000; stroke-width: 0.6"/>
      </g>
     </g>
    </g>
    <g id="xtick_29">
     <g id="line2d_29">
      <g>
       <use xlink:href="#mccba4b2c02" x="234.476224" y="307.584" style="stroke: #000000; stroke-width: 0.6"/>
      </g>
     </g>
    </g>
    <g id="xtick_30">
     <g id="line2d_30">
      <g>
       <use xlink:href="#mccba4b2c02" x="240.459162" y="307.584" style="stroke: #000000; stroke-width: 0.6"/>
      </g>
     </g>
    </g>
    <g id="xtick_31">
     <g id="line2d_31">
      <g>
       <use xlink:href="#mccba4b2c02" x="245.347579" y="307.584" style="stroke: #000000; stroke-width: 0.6"/>
      </g>
     </g>
    </g>
    <g id="xtick_32">
     <g id="line2d_32">
      <g>
       <use xlink:href="#mccba4b2c02" x="249.480676" y="307.584" style="stroke: #000000; stroke-width: 0.6"/>
      </g>
     </g>
    </g>
    <g id="xtick_33">
     <g id="line2d_33">
      <g>
       <use xlink:href="#mccba4b2c02" x="253.060927" y="307.584" style="stroke: #000000; stroke-width: 0.6"/>
      </g>
     </g>
    </g>
    <g id="xtick_34">
     <g id="line2d_34">
      <g>
       <use xlink:href="#mccba4b2c02" x="256.218933" y="307.584" style="stroke: #000000; stroke-width: 0.6"/>
      </g>
     </g>
    </g>
    <g id="xtick_35">
     <g id="line2d_35">
      <g>
       <use xlink:href="#mccba4b2c02" x="277.628568" y="307.584" style="stroke: #000000; stroke-width: 0.6"/>
      </g>
     </g>
    </g>
    <g id="xtick_36">
     <g id="line2d_36">
      <g>
       <use xlink:href="#mccba4b2c02" x="288.499922" y="307.584" style="stroke: #000000; stroke-width: 0.6"/>
      </g>
     </g>
    </g>
    <g id="xtick_37">
     <g id="line2d_37">
      <g>
       <use xlink:href="#mccba4b2c02" x="296.21327" y="307.584" style="stroke: #000000; stroke-width: 0.6"/>
      </g>
     </g>
    </g>
    <g id="xtick_38">
     <g id="line2d_38">
      <g>
       <use xlink:href="#mccba4b2c02" x="302.196208" y="307.584" style="stroke: #000000; stroke-width: 0.6"/>
      </g>
     </g>
    </g>
    <g id="xtick_39">
     <g id="line2d_39">
      <g>
       <use xlink:href="#mccba4b2c02" x="307.084624" y="307.584" style="stroke: #000000; stroke-width: 0.6"/>
      </g>
     </g>
    </g>
    <g id="xtick_40">
     <g id="line2d_40">
      <g>
       <use xlink:href="#mccba4b2c02" x="311.217722" y="307.584" style="stroke: #000000; stroke-width: 0.6"/>
      </g>
     </g>
    </g>
    <g id="xtick_41">
     <g id="line2d_41">
      <g>
       <use xlink:href="#mccba4b2c02" x="314.797973" y="307.584" style="stroke: #000000; stroke-width: 0.6"/>
      </g>
     </g>
    </g>
    <g id="xtick_42">
     <g id="line2d_42">
      <g>
       <use xlink:href="#mccba4b2c02" x="317.955979" y="307.584" style="stroke: #000000; stroke-width: 0.6"/>
      </g>
     </g>
    </g>
    <g id="xtick_43">
     <g id="line2d_43">
      <g>
       <use xlink:href="#mccba4b2c02" x="339.365614" y="307.584" style="stroke: #000000; stroke-width: 0.6"/>
      </g>
     </g>
    </g>
    <g id="xtick_44">
     <g id="line2d_44">
      <g>
       <use xlink:href="#mccba4b2c02" x="350.236968" y="307.584" style="stroke: #000000; stroke-width: 0.6"/>
      </g>
     </g>
    </g>
    <g id="xtick_45">
     <g id="line2d_45">
      <g>
       <use xlink:href="#mccba4b2c02" x="357.950316" y="307.584" style="stroke: #000000; stroke-width: 0.6"/>
      </g>
     </g>
    </g>
    <g id="xtick_46">
     <g id="line2d_46">
      <g>
       <use xlink:href="#mccba4b2c02" x="363.933254" y="307.584" style="stroke: #000000; stroke-width: 0.6"/>
      </g>
     </g>
    </g>
    <g id="xtick_47">
     <g id="line2d_47">
      <g>
       <use xlink:href="#mccba4b2c02" x="368.82167" y="307.584" style="stroke: #000000; stroke-width: 0.6"/>
      </g>
     </g>
    </g>
    <g id="xtick_48">
     <g id="line2d_48">
      <g>
       <use xlink:href="#mccba4b2c02" x="372.954767" y="307.584" style="stroke: #000000; stroke-width: 0.6"/>
      </g>
     </g>
    </g>
    <g id="xtick_49">
     <g id="line2d_49">
      <g>
       <use xlink:href="#mccba4b2c02" x="376.535019" y="307.584" style="stroke: #000000; stroke-width: 0.6"/>
      </g>
     </g>
    </g>
    <g id="xtick_50">
     <g id="line2d_50">
      <g>
       <use xlink:href="#mccba4b2c02" x="379.693025" y="307.584" style="stroke: #000000; stroke-width: 0.6"/>
      </g>
     </g>
    </g>
    <g id="xtick_51">
     <g id="line2d_51">
      <g>
       <use xlink:href="#mccba4b2c02" x="401.10266" y="307.584" style="stroke: #000000; stroke-width: 0.6"/>
      </g>
     </g>
    </g>
    <g id="xtick_52">
     <g id="line2d_52">
      <g>
       <use xlink:href="#mccba4b2c02" x="411.974014" y="307.584" style="stroke: #000000; stroke-width: 0.6"/>
      </g>
     </g>
    </g>
    <g id="text_7">
     <!-- Learning Rate (log scale) -->
     <g transform="translate(173.814687 335.860562)scale(0.1 -0.1)">
      <defs>
       <path id="DejaVuSans-4c" d="M 628 4666 
L 1259 4666 
L 1259 531 
L 3531 531 
L 3531 0 
L 628 0 
L 628 4666 
z
" transform="scale(0.015625)"/>
       <path id="DejaVuSans-61" d="M 2194 1759 
Q 1497 1759 1228 1600 
Q 959 1441 959 1056 
Q 959 750 1161 570 
Q 1363 391 1709 391 
Q 2188 391 2477 730 
Q 2766 1069 2766 1631 
L 2766 1759 
L 2194 1759 
z
M 3341 1997 
L 3341 0 
L 2766 0 
L 2766 531 
Q 2569 213 2275 61 
Q 1981 -91 1556 -91 
Q 1019 -91 701 211 
Q 384 513 384 1019 
Q 384 1609 779 1909 
Q 1175 2209 1959 2209 
L 2766 2209 
L 2766 2266 
Q 2766 2663 2505 2880 
Q 2244 3097 1772 3097 
Q 1472 3097 1187 3025 
Q 903 2953 641 2809 
L 641 3341 
Q 956 3463 1253 3523 
Q 1550 3584 1831 3584 
Q 2591 3584 2966 3190 
Q 3341 2797 3341 1997 
z
" transform="scale(0.015625)"/>
       <path id="DejaVuSans-72" d="M 2631 2963 
Q 2534 3019 2420 3045 
Q 2306 3072 2169 3072 
Q 1681 3072 1420 2755 
Q 1159 2438 1159 1844 
L 1159 0 
L 581 0 
L 581 3500 
L 1159 3500 
L 1159 2956 
Q 1341 3275 1631 3429 
Q 1922 3584 2338 3584 
Q 2397 3584 2469 3576 
Q 2541 3569 2628 3553 
L 2631 2963 
z
" transform="scale(0.015625)"/>
       <path id="DejaVuSans-6e" d="M 3513 2113 
L 3513 0 
L 2938 0 
L 2938 2094 
Q 2938 2591 2744 2837 
Q 2550 3084 2163 3084 
Q 1697 3084 1428 2787 
Q 1159 2491 1159 1978 
L 1159 0 
L 581 0 
L 581 3500 
L 1159 3500 
L 1159 2956 
Q 1366 3272 1645 3428 
Q 1925 3584 2291 3584 
Q 2894 3584 3203 3211 
Q 3513 2838 3513 2113 
z
" transform="scale(0.015625)"/>
       <path id="DejaVuSans-69" d="M 603 3500 
L 1178 3500 
L 1178 0 
L 603 0 
L 603 3500 
z
M 603 4863 
L 1178 4863 
L 1178 4134 
L 603 4134 
L 603 4863 
z
" transform="scale(0.015625)"/>
       <path id="DejaVuSans-67" d="M 2906 1791 
Q 2906 2416 2648 2759 
Q 2391 3103 1925 3103 
Q 1463 3103 1205 2759 
Q 947 2416 947 1791 
Q 947 1169 1205 825 
Q 1463 481 1925 481 
Q 2391 481 2648 825 
Q 2906 1169 2906 1791 
z
M 3481 434 
Q 3481 -459 3084 -895 
Q 2688 -1331 1869 -1331 
Q 1566 -1331 1297 -1286 
Q 1028 -1241 775 -1147 
L 775 -588 
Q 1028 -725 1275 -790 
Q 1522 -856 1778 -856 
Q 2344 -856 2625 -561 
Q 2906 -266 2906 331 
L 2906 616 
Q 2728 306 2450 153 
Q 2172 0 1784 0 
Q 1141 0 747 490 
Q 353 981 353 1791 
Q 353 2603 747 3093 
Q 1141 3584 1784 3584 
Q 2172 3584 2450 3431 
Q 2728 3278 2906 2969 
L 2906 3500 
L 3481 3500 
L 3481 434 
z
" transform="scale(0.015625)"/>
       <path id="DejaVuSans-20" transform="scale(0.015625)"/>
       <path id="DejaVuSans-52" d="M 2841 2188 
Q 3044 2119 3236 1894 
Q 3428 1669 3622 1275 
L 4263 0 
L 3584 0 
L 2988 1197 
Q 2756 1666 2539 1819 
Q 2322 1972 1947 1972 
L 1259 1972 
L 1259 0 
L 628 0 
L 628 4666 
L 2053 4666 
Q 2853 4666 3247 4331 
Q 3641 3997 3641 3322 
Q 3641 2881 3436 2590 
Q 3231 2300 2841 2188 
z
M 1259 4147 
L 1259 2491 
L 2053 2491 
Q 2509 2491 2742 2702 
Q 2975 2913 2975 3322 
Q 2975 3731 2742 3939 
Q 2509 4147 2053 4147 
L 1259 4147 
z
" transform="scale(0.015625)"/>
       <path id="DejaVuSans-74" d="M 1172 4494 
L 1172 3500 
L 2356 3500 
L 2356 3053 
L 1172 3053 
L 1172 1153 
Q 1172 725 1289 603 
Q 1406 481 1766 481 
L 2356 481 
L 2356 0 
L 1766 0 
Q 1100 0 847 248 
Q 594 497 594 1153 
L 594 3053 
L 172 3053 
L 172 3500 
L 594 3500 
L 594 4494 
L 1172 4494 
z
" transform="scale(0.015625)"/>
       <path id="DejaVuSans-28" d="M 1984 4856 
Q 1566 4138 1362 3434 
Q 1159 2731 1159 2009 
Q 1159 1288 1364 580 
Q 1569 -128 1984 -844 
L 1484 -844 
Q 1016 -109 783 600 
Q 550 1309 550 2009 
Q 550 2706 781 3412 
Q 1013 4119 1484 4856 
L 1984 4856 
z
" transform="scale(0.015625)"/>
       <path id="DejaVuSans-6c" d="M 603 4863 
L 1178 4863 
L 1178 0 
L 603 0 
L 603 4863 
z
" transform="scale(0.015625)"/>
       <path id="DejaVuSans-6f" d="M 1959 3097 
Q 1497 3097 1228 2736 
Q 959 2375 959 1747 
Q 959 1119 1226 758 
Q 1494 397 1959 397 
Q 2419 397 2687 759 
Q 2956 1122 2956 1747 
Q 2956 2369 2687 2733 
Q 2419 3097 1959 3097 
z
M 1959 3584 
Q 2709 3584 3137 3096 
Q 3566 2609 3566 1747 
Q 3566 888 3137 398 
Q 2709 -91 1959 -91 
Q 1206 -91 779 398 
Q 353 888 353 1747 
Q 353 2609 779 3096 
Q 1206 3584 1959 3584 
z
" transform="scale(0.015625)"/>
       <path id="DejaVuSans-73" d="M 2834 3397 
L 2834 2853 
Q 2591 2978 2328 3040 
Q 2066 3103 1784 3103 
Q 1356 3103 1142 2972 
Q 928 2841 928 2578 
Q 928 2378 1081 2264 
Q 1234 2150 1697 2047 
L 1894 2003 
Q 2506 1872 2764 1633 
Q 3022 1394 3022 966 
Q 3022 478 2636 193 
Q 2250 -91 1575 -91 
Q 1294 -91 989 -36 
Q 684 19 347 128 
L 347 722 
Q 666 556 975 473 
Q 1284 391 1588 391 
Q 1994 391 2212 530 
Q 2431 669 2431 922 
Q 2431 1156 2273 1281 
Q 2116 1406 1581 1522 
L 1381 1569 
Q 847 1681 609 1914 
Q 372 2147 372 2553 
Q 372 3047 722 3315 
Q 1072 3584 1716 3584 
Q 2034 3584 2315 3537 
Q 2597 3491 2834 3397 
z
" transform="scale(0.015625)"/>
       <path id="DejaVuSans-63" d="M 3122 3366 
L 3122 2828 
Q 2878 2963 2633 3030 
Q 2388 3097 2138 3097 
Q 1578 3097 1268 2742 
Q 959 2388 959 1747 
Q 959 1106 1268 751 
Q 1578 397 2138 397 
Q 2388 397 2633 464 
Q 2878 531 3122 666 
L 3122 134 
Q 2881 22 2623 -34 
Q 2366 -91 2075 -91 
Q 1284 -91 818 406 
Q 353 903 353 1747 
Q 353 2603 823 3093 
Q 1294 3584 2113 3584 
Q 2378 3584 2631 3529 
Q 2884 3475 3122 3366 
z
" transform="scale(0.015625)"/>
       <path id="DejaVuSans-29" d="M 513 4856 
L 1013 4856 
Q 1481 4119 1714 3412 
Q 1947 2706 1947 2009 
Q 1947 1309 1714 600 
Q 1481 -109 1013 -844 
L 513 -844 
Q 928 -128 1133 580 
Q 1338 1288 1338 2009 
Q 1338 2731 1133 3434 
Q 928 4138 513 4856 
z
" transform="scale(0.015625)"/>
      </defs>
      <use xlink:href="#DejaVuSans-4c"/>
      <use xlink:href="#DejaVuSans-65" x="53.962891"/>
      <use xlink:href="#DejaVuSans-61" x="115.486328"/>
      <use xlink:href="#DejaVuSans-72" x="176.765625"/>
      <use xlink:href="#DejaVuSans-6e" x="216.128906"/>
      <use xlink:href="#DejaVuSans-69" x="279.507812"/>
      <use xlink:href="#DejaVuSans-6e" x="307.291016"/>
      <use xlink:href="#DejaVuSans-67" x="370.669922"/>
      <use xlink:href="#DejaVuSans-20" x="434.146484"/>
      <use xlink:href="#DejaVuSans-52" x="465.933594"/>
      <use xlink:href="#DejaVuSans-61" x="533.166016"/>
      <use xlink:href="#DejaVuSans-74" x="594.445312"/>
      <use xlink:href="#DejaVuSans-65" x="633.654297"/>
      <use xlink:href="#DejaVuSans-20" x="695.177734"/>
      <use xlink:href="#DejaVuSans-28" x="726.964844"/>
      <use xlink:href="#DejaVuSans-6c" x="765.978516"/>
      <use xlink:href="#DejaVuSans-6f" x="793.761719"/>
      <use xlink:href="#DejaVuSans-67" x="854.943359"/>
      <use xlink:href="#DejaVuSans-20" x="918.419922"/>
      <use xlink:href="#DejaVuSans-73" x="950.207031"/>
      <use xlink:href="#DejaVuSans-63" x="1002.306641"/>
      <use xlink:href="#DejaVuSans-61" x="1057.287109"/>
      <use xlink:href="#DejaVuSans-6c" x="1118.566406"/>
      <use xlink:href="#DejaVuSans-65" x="1146.349609"/>
      <use xlink:href="#DejaVuSans-29" x="1207.873047"/>
     </g>
    </g>
   </g>
   <g id="matplotlib.axis_2">
    <g id="ytick_1">
     <g id="line2d_53">
      <defs>
       <path id="m6620c52cf4" d="M 0 0 
L -3.5 0 
" style="stroke: #000000; stroke-width: 0.8"/>
      </defs>
      <g>
       <use xlink:href="#m6620c52cf4" x="57.6" y="272.127292" style="stroke: #000000; stroke-width: 0.8"/>
      </g>
     </g>
     <g id="text_8">
      <!-- 0.4 -->
      <g transform="translate(34.696875 275.92651)scale(0.1 -0.1)">
       <defs>
        <path id="DejaVuSans-2e" d="M 684 794 
L 1344 794 
L 1344 0 
L 684 0 
L 684 794 
z
" transform="scale(0.015625)"/>
       </defs>
       <use xlink:href="#DejaVuSans-30"/>
       <use xlink:href="#DejaVuSans-2e" x="63.623047"/>
       <use xlink:href="#DejaVuSans-34" x="95.410156"/>
      </g>
     </g>
    </g>
    <g id="ytick_2">
     <g id="line2d_54">
      <g>
       <use xlink:href="#m6620c52cf4" x="57.6" y="234.924934" style="stroke: #000000; stroke-width: 0.8"/>
      </g>
     </g>
     <g id="text_9">
      <!-- 0.6 -->
      <g transform="translate(34.696875 238.724153)scale(0.1 -0.1)">
       <use xlink:href="#DejaVuSans-30"/>
       <use xlink:href="#DejaVuSans-2e" x="63.623047"/>
       <use xlink:href="#DejaVuSans-36" x="95.410156"/>
      </g>
     </g>
    </g>
    <g id="ytick_3">
     <g id="line2d_55">
      <g>
       <use xlink:href="#m6620c52cf4" x="57.6" y="197.722577" style="stroke: #000000; stroke-width: 0.8"/>
      </g>
     </g>
     <g id="text_10">
      <!-- 0.8 -->
      <g transform="translate(34.696875 201.521795)scale(0.1 -0.1)">
       <defs>
        <path id="DejaVuSans-38" d="M 2034 2216 
Q 1584 2216 1326 1975 
Q 1069 1734 1069 1313 
Q 1069 891 1326 650 
Q 1584 409 2034 409 
Q 2484 409 2743 651 
Q 3003 894 3003 1313 
Q 3003 1734 2745 1975 
Q 2488 2216 2034 2216 
z
M 1403 2484 
Q 997 2584 770 2862 
Q 544 3141 544 3541 
Q 544 4100 942 4425 
Q 1341 4750 2034 4750 
Q 2731 4750 3128 4425 
Q 3525 4100 3525 3541 
Q 3525 3141 3298 2862 
Q 3072 2584 2669 2484 
Q 3125 2378 3379 2068 
Q 3634 1759 3634 1313 
Q 3634 634 3220 271 
Q 2806 -91 2034 -91 
Q 1263 -91 848 271 
Q 434 634 434 1313 
Q 434 1759 690 2068 
Q 947 2378 1403 2484 
z
M 1172 3481 
Q 1172 3119 1398 2916 
Q 1625 2713 2034 2713 
Q 2441 2713 2670 2916 
Q 2900 3119 2900 3481 
Q 2900 3844 2670 4047 
Q 2441 4250 2034 4250 
Q 1625 4250 1398 4047 
Q 1172 3844 1172 3481 
z
" transform="scale(0.015625)"/>
       </defs>
       <use xlink:href="#DejaVuSans-30"/>
       <use xlink:href="#DejaVuSans-2e" x="63.623047"/>
       <use xlink:href="#DejaVuSans-38" x="95.410156"/>
      </g>
     </g>
    </g>
    <g id="ytick_4">
     <g id="line2d_56">
      <g>
       <use xlink:href="#m6620c52cf4" x="57.6" y="160.520219" style="stroke: #000000; stroke-width: 0.8"/>
      </g>
     </g>
     <g id="text_11">
      <!-- 1.0 -->
      <g transform="translate(34.696875 164.319438)scale(0.1 -0.1)">
       <use xlink:href="#DejaVuSans-31"/>
       <use xlink:href="#DejaVuSans-2e" x="63.623047"/>
       <use xlink:href="#DejaVuSans-30" x="95.410156"/>
      </g>
     </g>
    </g>
    <g id="ytick_5">
     <g id="line2d_57">
      <g>
       <use xlink:href="#m6620c52cf4" x="57.6" y="123.317861" style="stroke: #000000; stroke-width: 0.8"/>
      </g>
     </g>
     <g id="text_12">
      <!-- 1.2 -->
      <g transform="translate(34.696875 127.11708)scale(0.1 -0.1)">
       <use xlink:href="#DejaVuSans-31"/>
       <use xlink:href="#DejaVuSans-2e" x="63.623047"/>
       <use xlink:href="#DejaVuSans-32" x="95.410156"/>
      </g>
     </g>
    </g>
    <g id="ytick_6">
     <g id="line2d_58">
      <g>
       <use xlink:href="#m6620c52cf4" x="57.6" y="86.115504" style="stroke: #000000; stroke-width: 0.8"/>
      </g>
     </g>
     <g id="text_13">
      <!-- 1.4 -->
      <g transform="translate(34.696875 89.914723)scale(0.1 -0.1)">
       <use xlink:href="#DejaVuSans-31"/>
       <use xlink:href="#DejaVuSans-2e" x="63.623047"/>
       <use xlink:href="#DejaVuSans-34" x="95.410156"/>
      </g>
     </g>
    </g>
    <g id="ytick_7">
     <g id="line2d_59">
      <g>
       <use xlink:href="#m6620c52cf4" x="57.6" y="48.913146" style="stroke: #000000; stroke-width: 0.8"/>
      </g>
     </g>
     <g id="text_14">
      <!-- 1.6 -->
      <g transform="translate(34.696875 52.712365)scale(0.1 -0.1)">
       <use xlink:href="#DejaVuSans-31"/>
       <use xlink:href="#DejaVuSans-2e" x="63.623047"/>
       <use xlink:href="#DejaVuSans-36" x="95.410156"/>
      </g>
     </g>
    </g>
    <g id="text_15">
     <!-- Loss -->
     <g transform="translate(28.617188 185.495187)rotate(-90)scale(0.1 -0.1)">
      <use xlink:href="#DejaVuSans-4c"/>
      <use xlink:href="#DejaVuSans-6f" x="53.962891"/>
      <use xlink:href="#DejaVuSans-73" x="115.144531"/>
      <use xlink:href="#DejaVuSans-73" x="167.244141"/>
     </g>
    </g>
   </g>
   <g id="line2d_60">
    <path d="M 73.832727 53.568 
L 74.491256 63.707146 
L 75.149784 67.825903 
L 75.808313 69.391578 
L 76.137577 73.296462 
L 76.466841 74.908198 
L 76.796105 74.900647 
L 77.12537 74.52219 
L 77.454634 74.730405 
L 78.113162 75.569251 
L 78.442427 77.369212 
L 79.430219 79.642995 
L 79.759484 79.725894 
L 80.088748 79.60628 
L 80.418012 79.671425 
L 80.747276 78.887944 
L 82.393598 77.937163 
L 82.722862 77.990396 
L 83.052126 77.575894 
L 83.38139 78.647193 
L 83.710655 78.901118 
L 84.369183 77.621221 
L 84.698447 77.502097 
L 85.027712 77.532302 
L 85.356976 78.363357 
L 85.68624 79.534874 
L 86.674033 80.309822 
L 87.332561 80.856209 
L 87.661826 79.305799 
L 87.99109 78.417591 
L 88.320354 77.965172 
L 88.649618 78.303226 
L 88.978883 78.23783 
L 90.29594 77.154326 
L 91.942261 74.55463 
L 92.271525 72.143159 
L 92.930053 71.377343 
L 93.259318 71.516457 
L 93.917846 72.36069 
L 94.24711 72.570955 
L 94.576375 71.267717 
L 94.905639 70.809993 
L 95.234903 71.301506 
L 96.55196 72.196225 
L 97.210489 74.741915 
L 97.539753 76.004211 
L 98.527546 77.42137 
L 99.186074 78.009291 
L 99.844603 79.551362 
L 100.503131 79.907964 
L 100.832395 79.836651 
L 101.16166 79.47362 
L 101.820188 77.440314 
L 102.149452 77.326221 
L 102.807981 77.940331 
L 103.137245 77.908478 
L 103.466509 78.020291 
L 103.795774 76.093064 
L 104.125038 75.508319 
L 104.454302 75.432081 
L 104.783566 75.702902 
L 105.771359 75.436408 
L 106.759152 77.964485 
L 107.41768 78.693334 
L 107.746944 78.926419 
L 108.076209 79.017548 
L 108.405473 78.91876 
L 108.734737 79.429133 
L 109.064001 79.159904 
L 109.393266 79.150008 
L 109.72253 78.957348 
L 110.381058 79.136826 
L 110.710323 80.462754 
L 111.368851 80.020374 
L 112.02738 79.950742 
L 112.356644 79.746621 
L 112.685908 79.387915 
L 113.015172 78.479852 
L 113.344437 79.065326 
L 113.673701 79.128091 
L 114.661494 77.877814 
L 114.990758 77.640572 
L 115.320022 75.233557 
L 115.978551 74.483875 
L 116.637079 74.31187 
L 116.966343 73.914696 
L 117.295608 73.889301 
L 117.954136 76.282546 
L 118.2834 76.457344 
L 118.612665 75.870786 
L 119.271193 75.81249 
L 119.600457 75.996089 
L 119.929722 77.227706 
L 120.258986 77.999031 
L 120.58825 77.861684 
L 121.246779 76.905501 
L 121.905307 76.657626 
L 122.234571 77.062021 
L 122.8931 78.932156 
L 123.222364 79.111475 
L 123.551628 79.035706 
L 124.210157 78.632215 
L 124.539421 76.998141 
L 124.868685 76.5671 
L 125.197949 76.365768 
L 125.856478 76.459622 
L 126.515006 76.548029 
L 126.844271 76.840561 
L 127.502799 77.662229 
L 127.832063 77.379595 
L 128.161328 77.367318 
L 129.14912 76.295604 
L 129.478385 76.153992 
L 129.807649 76.73587 
L 130.136913 77.032348 
L 130.795442 76.569716 
L 131.124706 76.422238 
L 131.45397 77.761885 
L 131.783234 78.157803 
L 132.441763 78.00162 
L 133.100291 77.751193 
L 133.429556 77.766801 
L 133.75882 77.292661 
L 134.417348 79.085078 
L 135.405141 80.605501 
L 135.734405 80.743797 
L 136.06367 79.169857 
L 136.392934 79.163959 
L 136.722198 79.556893 
L 137.051462 79.668459 
L 137.380727 79.628689 
L 138.039255 80.404223 
L 138.368519 81.197904 
L 138.697784 80.597794 
L 139.027048 80.321948 
L 139.356312 80.508364 
L 139.685576 80.404472 
L 140.344105 80.701744 
L 141.002633 80.081024 
L 141.331897 80.206784 
L 141.990426 79.767882 
L 142.31969 79.349876 
L 142.648954 79.153161 
L 142.978219 77.968873 
L 143.307483 77.446224 
L 143.636747 77.264342 
L 143.966011 77.256305 
L 144.295276 77.360441 
L 145.283068 78.279079 
L 145.941597 79.695759 
L 146.270861 80.046215 
L 146.600125 80.076057 
L 147.587918 80.623823 
L 148.246447 81.519453 
L 149.563504 81.283129 
L 149.892768 81.780503 
L 150.551296 80.323842 
L 150.880561 79.153722 
L 151.209825 78.449904 
L 151.539089 78.333143 
L 151.868353 78.369243 
L 152.197618 77.314221 
L 152.856146 78.952818 
L 153.514675 80.037272 
L 153.843939 79.968597 
L 154.173203 79.777331 
L 154.831732 81.844658 
L 155.160996 82.089057 
L 156.148788 82.256068 
L 156.478053 82.501852 
L 156.807317 82.446403 
L 157.136581 81.873461 
L 157.465845 81.594225 
L 158.124374 80.4889 
L 158.782902 80.033474 
L 159.112167 81.355285 
L 159.441431 80.69817 
L 159.770695 80.450174 
L 160.099959 80.719631 
L 160.429224 81.171105 
L 161.087752 81.225696 
L 161.746281 80.394606 
L 162.075545 80.177338 
L 162.404809 80.19231 
L 163.063338 80.56153 
L 163.392602 80.793134 
L 164.05113 77.961682 
L 164.380395 77.37874 
L 164.709659 77.354381 
L 165.038923 77.65218 
L 165.697452 78.866444 
L 166.35598 81.932508 
L 167.014509 83.907781 
L 168.002301 84.926886 
L 168.331566 84.833491 
L 168.66083 85.019455 
L 168.990094 84.61643 
L 169.648623 84.920556 
L 170.307151 84.943967 
L 170.636415 87.544261 
L 170.96568 88.80593 
L 171.294944 89.043048 
L 171.624208 88.728279 
L 171.953472 88.61928 
L 172.612001 88.879268 
L 172.941265 88.36452 
L 173.270529 88.102552 
L 174.258322 86.353866 
L 174.91685 85.65646 
L 175.246115 86.227434 
L 175.575379 86.202063 
L 176.233907 87.10247 
L 176.563172 87.166059 
L 176.892436 87.423306 
L 177.2217 87.518352 
L 177.880229 88.020891 
L 178.209493 88.63088 
L 178.868021 89.215461 
L 179.52655 89.242699 
L 179.855814 88.770068 
L 180.185078 88.044741 
L 180.514343 87.883347 
L 181.172871 86.878712 
L 181.502135 87.000672 
L 181.8314 87.283048 
L 182.160664 87.338174 
L 182.819192 87.951615 
L 183.806985 88.072971 
L 184.136249 87.98453 
L 184.465514 87.213904 
L 185.124042 87.402254 
L 185.453306 87.920183 
L 186.111835 87.974886 
L 186.441099 87.76647 
L 186.770363 85.804342 
L 187.099628 86.029426 
L 187.428892 86.042491 
L 188.08742 85.799205 
L 188.745949 86.23648 
L 189.075213 86.059952 
L 189.404477 86.41982 
L 189.733741 86.387579 
L 190.39227 87.288928 
L 191.050798 88.601774 
L 191.380063 88.030524 
L 193.355648 91.209389 
L 193.684912 90.461157 
L 194.014177 90.339904 
L 195.001969 91.290095 
L 195.660498 92.150172 
L 195.989762 92.121309 
L 196.319026 92.441532 
L 197.306819 93.822525 
L 197.965348 94.584674 
L 198.294612 95.653303 
L 199.282405 96.167305 
L 200.270197 95.882722 
L 200.599462 96.584192 
L 200.928726 96.693049 
L 201.587254 97.734672 
L 202.575047 98.660395 
L 202.904311 97.856852 
L 203.56284 98.96173 
L 203.892104 99.297136 
L 204.221368 99.428412 
L 204.879897 100.22306 
L 205.209161 98.741303 
L 205.538425 98.08126 
L 206.196954 97.526016 
L 206.855482 98.029279 
L 207.184746 98.274555 
L 207.514011 98.337149 
L 208.172539 99.701703 
L 208.501803 100.121858 
L 208.831068 100.823374 
L 209.489596 101.75164 
L 209.81886 103.124953 
L 210.148125 103.766569 
L 210.477389 104.124032 
L 211.135917 105.049052 
L 211.794446 105.888753 
L 212.12371 107.288107 
L 212.782239 107.613429 
L 213.111503 107.891888 
L 214.099296 109.069452 
L 214.757824 109.286427 
L 215.087088 109.449521 
L 216.074881 110.437588 
L 216.404145 110.537713 
L 216.73341 110.818583 
L 217.391938 112.227315 
L 218.379731 112.29187 
L 218.708995 112.528235 
L 219.038259 111.715952 
L 220.026052 114.77752 
L 220.355316 115.521761 
L 221.013845 116.429088 
L 221.343109 117.821408 
L 221.672373 118.415778 
L 222.001637 118.369666 
L 222.98943 119.811672 
L 223.318694 120.241721 
L 223.647959 120.214688 
L 224.306487 119.555683 
L 225.29428 120.539418 
L 225.623544 120.919372 
L 225.952808 120.975572 
L 226.282073 121.409946 
L 227.269865 123.357044 
L 227.928394 124.235998 
L 228.916187 128.802052 
L 230.233244 132.925031 
L 230.562508 131.906952 
L 230.891772 132.07329 
L 232.538093 135.797484 
L 232.867358 135.993402 
L 233.196622 136.325836 
L 233.525886 136.935126 
L 234.184415 136.978777 
L 234.513679 137.24582 
L 234.842943 137.800083 
L 235.172207 139.833536 
L 235.501472 140.912249 
L 236.16 143.961126 
L 236.489264 145.224299 
L 237.147793 146.34537 
L 237.477057 147.491155 
L 237.806321 148.001542 
L 238.135585 147.90042 
L 238.46485 148.022524 
L 239.452642 149.831573 
L 239.781907 150.000335 
L 240.440435 151.304515 
L 241.428228 154.297752 
L 242.086756 155.791417 
L 242.416021 155.545508 
L 242.745285 155.634643 
L 243.074549 155.894811 
L 243.403813 156.666779 
L 244.062342 159.223415 
L 244.391606 159.819769 
L 245.050135 162.265627 
L 245.708663 163.63958 
L 246.367192 165.640458 
L 246.696456 167.539831 
L 247.02572 168.426219 
L 247.354984 170.285044 
L 248.013513 172.331227 
L 248.672041 173.451074 
L 249.001306 174.863222 
L 249.33057 177.265216 
L 249.989098 179.435073 
L 250.318363 180.054895 
L 250.647627 180.285889 
L 250.976891 180.262272 
L 251.964684 181.795152 
L 252.293948 182.872471 
L 252.623212 183.494437 
L 253.281741 185.12411 
L 253.611005 187.135043 
L 253.940269 187.552586 
L 254.269533 188.256156 
L 254.598798 188.12049 
L 254.928062 187.79662 
L 255.257326 187.712532 
L 255.58659 188.078391 
L 255.915855 190.960006 
L 256.903647 195.083635 
L 257.89144 197.716692 
L 258.220704 196.733091 
L 258.549969 196.768815 
L 258.879233 197.670521 
L 259.208497 198.103149 
L 260.19629 200.245472 
L 260.525554 201.308227 
L 261.842611 207.645063 
L 262.171875 207.808405 
L 262.50114 207.831387 
L 262.830404 208.172948 
L 263.159668 207.699607 
L 264.476725 210.025065 
L 264.805989 210.116274 
L 265.135254 207.30534 
L 265.793782 207.339842 
L 266.123046 208.119171 
L 266.781575 210.504328 
L 267.440103 211.986455 
L 267.769368 212.536938 
L 268.427896 214.633201 
L 268.75716 214.608166 
L 269.086424 215.06297 
L 269.415689 215.239646 
L 269.744953 215.853797 
L 270.732746 219.042831 
L 271.720538 219.750044 
L 272.708331 222.979002 
L 273.037595 223.147473 
L 273.36686 223.735408 
L 273.696124 224.034871 
L 274.025388 224.078838 
L 274.354652 228.02045 
L 274.683917 229.900639 
L 275.342445 232.501165 
L 275.671709 232.787089 
L 276.000974 232.264604 
L 276.330238 231.953012 
L 276.659502 231.481061 
L 276.988766 231.394937 
L 277.318031 232.062128 
L 277.647295 232.278255 
L 277.976559 232.772529 
L 278.305823 232.978983 
L 278.635088 232.454607 
L 278.964352 233.957065 
L 279.293616 233.754858 
L 279.62288 234.084843 
L 279.952145 233.673091 
L 280.281409 234.294226 
L 280.610673 234.403875 
L 280.939937 234.154119 
L 281.269202 231.158154 
L 281.92773 228.733797 
L 282.256994 228.010306 
L 283.244787 228.232633 
L 283.574051 230.162092 
L 283.903316 233.338617 
L 284.23258 235.292662 
L 284.891108 237.173175 
L 285.549637 238.300596 
L 285.878901 236.072534 
L 286.537429 239.155261 
L 286.866694 239.564528 
L 287.195958 240.227302 
L 287.525222 239.585757 
L 287.854486 239.382366 
L 288.183751 239.72702 
L 288.513015 241.288194 
L 289.500808 243.379514 
L 289.830072 243.077156 
L 290.159336 242.271554 
L 290.4886 245.862263 
L 290.817865 246.733881 
L 291.476393 246.797638 
L 291.805657 247.121039 
L 292.79345 246.529158 
L 293.122714 247.013558 
L 293.781243 245.436142 
L 294.110507 244.949993 
L 294.439771 244.889103 
L 294.769036 244.385978 
L 295.0983 244.298018 
L 295.427564 243.609854 
L 295.756828 243.830416 
L 297.073885 246.113308 
L 297.40315 250.347265 
L 297.732414 252.76804 
L 298.061678 254.157942 
L 298.390942 255.006092 
L 298.720207 255.074587 
L 299.378735 254.252927 
L 299.707999 251.34208 
L 300.037264 251.284348 
L 300.695792 251.966616 
L 301.35432 250.329748 
L 301.683585 249.489681 
L 302.012849 248.099935 
L 302.342113 246.018753 
L 303.000642 244.929628 
L 303.65917 244.155981 
L 303.988434 243.598641 
L 304.317699 242.17141 
L 304.646963 241.999965 
L 304.976227 242.066362 
L 305.305491 241.823258 
L 305.634756 242.620711 
L 305.96402 242.906678 
L 306.293284 243.401435 
L 306.622548 246.16949 
L 306.951813 247.677223 
L 307.610341 249.045123 
L 308.598134 250.713255 
L 308.927398 250.525513 
L 309.256662 251.325246 
L 309.585927 251.398298 
L 309.915191 251.65763 
L 310.573719 252.903847 
L 310.902984 253.159206 
L 311.232248 253.225684 
L 311.561512 253.921958 
L 312.220041 257.90946 
L 312.549305 259.647074 
L 313.207833 261.002162 
L 313.866362 262.312848 
L 314.52489 261.533488 
L 314.854155 261.55975 
L 315.183419 261.143584 
L 315.512683 261.273046 
L 315.841947 265.049483 
L 316.171212 266.306039 
L 316.500476 266.51631 
L 316.82974 267.619285 
L 317.159004 268.096413 
L 318.146797 267.238179 
L 318.476061 266.535085 
L 318.805325 264.12355 
L 319.13459 262.808327 
L 319.793118 261.56788 
L 320.122382 261.340553 
L 320.780911 266.3108 
L 321.439439 268.825641 
L 322.097968 270.798525 
L 322.756496 272.585242 
L 323.085761 274.431589 
L 323.415025 275.16679 
L 324.073553 277.634329 
L 324.402818 278.049034 
L 324.732082 277.800934 
L 325.061346 277.186342 
L 325.719875 275.265145 
L 326.049139 274.554802 
L 326.378403 274.364057 
L 326.707667 274.30852 
L 327.036932 274.808515 
L 327.366196 276.054134 
L 327.69546 275.965207 
L 328.353989 273.584969 
L 329.012517 272.845209 
L 329.341781 272.750948 
L 329.671046 273.255071 
L 330.00031 272.811802 
L 330.329574 273.357105 
L 330.988103 271.66364 
L 331.317367 271.265082 
L 331.646631 271.302134 
L 331.975895 270.173699 
L 332.30516 270.510985 
L 332.634424 271.22552 
L 333.622216 276.032509 
L 333.951481 276.630509 
L 334.280745 273.334361 
L 334.610009 273.349593 
L 334.939273 273.922054 
L 335.268538 273.355519 
L 335.927066 271.420259 
L 336.25633 271.18324 
L 336.585595 271.983193 
L 337.573387 267.270284 
L 338.231916 266.1006 
L 338.56118 265.847038 
L 338.890444 268.335554 
L 339.219709 269.242091 
L 339.548973 269.502493 
L 339.878237 269.500435 
L 340.207501 269.64791 
L 340.86603 269.255137 
L 341.524558 275.27225 
L 341.853823 277.317131 
L 342.183087 278.653389 
L 342.512351 279.219059 
L 343.17088 280.754122 
L 343.500144 280.880394 
L 344.158672 283.54263 
L 344.487937 283.429598 
L 345.475729 284.283571 
L 346.134258 288.534815 
L 346.792786 289.523939 
L 347.122051 289.67018 
L 347.451315 290.144911 
L 347.780579 290.248952 
L 348.439108 293.413088 
L 348.768372 294.880241 
L 350.085429 291.090532 
L 350.414693 285.977327 
L 350.743957 283.227758 
L 351.073221 282.972944 
L 351.402486 282.555255 
L 351.73175 282.337175 
L 352.390278 280.839005 
L 352.719543 279.577547 
L 353.048807 279.245832 
L 353.378071 279.399903 
L 353.707335 280.072222 
L 354.0366 281.168826 
L 354.695128 279.69094 
L 355.024392 282.278633 
L 355.353657 282.621081 
L 355.682921 283.318434 
L 356.012185 283.479885 
L 356.341449 283.249294 
L 356.670714 283.27717 
L 356.999978 282.861069 
L 357.329242 281.72896 
L 357.658506 281.777697 
L 357.987771 281.942305 
L 358.317035 281.859283 
L 358.646299 282.485432 
L 358.975563 283.473321 
L 359.304828 284.050286 
L 360.621885 291.019339 
L 361.609677 294.167631 
L 361.938942 293.207283 
L 362.268206 293.506326 
L 362.926734 290.939958 
L 363.255999 290.166493 
L 363.585263 289.729476 
L 363.914527 288.928899 
L 364.243791 289.63973 
L 364.573056 291.593957 
L 366.219377 295.488 
L 366.548641 293.007219 
L 366.877905 292.415464 
L 367.207169 292.21862 
L 367.536434 292.40094 
L 367.865698 292.779669 
L 368.194962 292.67409 
L 368.524226 292.205383 
L 368.853491 284.61556 
L 369.512019 279.872324 
L 370.499812 275.265887 
L 370.829076 273.737707 
L 371.15834 275.673997 
L 371.816869 275.983909 
L 372.146133 275.914992 
L 372.475397 276.432195 
L 373.133926 278.233695 
L 373.46319 281.063811 
L 374.121719 274.53323 
L 374.780247 272.568232 
L 375.438776 268.387164 
L 375.76804 271.848438 
L 376.097304 272.600968 
L 376.426568 272.469618 
L 377.085097 271.832444 
L 377.743625 272.807504 
L 378.07289 267.868034 
L 378.402154 264.759595 
L 378.731418 263.236942 
L 379.060682 263.031943 
L 379.719211 246.301226 
L 380.048475 240.582881 
L 380.377739 246.685208 
L 380.707004 246.621365 
L 381.036268 245.49481 
L 381.694796 244.533758 
L 382.02406 244.513749 
L 382.353325 244.316018 
L 382.682589 246.429209 
L 383.670382 257.016788 
L 383.999646 258.295497 
L 384.658174 258.36356 
L 384.987439 261.502277 
L 385.316703 262.835946 
L 385.645967 263.394564 
L 386.304496 265.757652 
L 386.63376 266.762686 
L 386.963024 266.668543 
L 387.292288 269.607679 
L 387.621553 270.959241 
L 387.950817 270.905382 
L 388.93861 263.658882 
L 389.267874 261.912286 
L 389.597138 264.989132 
L 389.926402 263.643633 
L 390.255667 262.836222 
L 390.584931 262.784122 
L 390.914195 263.003676 
L 391.243459 263.868962 
L 391.572724 263.651547 
L 391.901988 261.837516 
L 392.231252 261.5335 
L 392.560516 261.537086 
L 392.889781 260.991665 
L 393.219045 260.854381 
L 393.548309 261.185998 
L 393.877573 262.052213 
L 394.206838 247.9654 
L 394.865366 237.649962 
L 395.19463 236.109621 
L 395.853159 213.925277 
L 396.182423 205.819716 
L 396.511687 208.889659 
L 396.840952 208.746952 
L 397.170216 209.228607 
L 397.49948 208.472765 
L 397.828744 206.138642 
L 398.487273 198.531488 
L 398.487273 198.531488 
" clip-path="url(#p955ae201b7)" style="fill: none; stroke: #1f77b4; stroke-width: 1.5; stroke-linecap: square"/>
   </g>
   <g id="patch_3">
    <path d="M 57.6 307.584 
L 57.6 41.472 
" style="fill: none; stroke: #000000; stroke-width: 0.8; stroke-linejoin: miter; stroke-linecap: square"/>
   </g>
   <g id="patch_4">
    <path d="M 414.72 307.584 
L 414.72 41.472 
" style="fill: none; stroke: #000000; stroke-width: 0.8; stroke-linejoin: miter; stroke-linecap: square"/>
   </g>
   <g id="patch_5">
    <path d="M 57.6 307.584 
L 414.72 307.584 
" style="fill: none; stroke: #000000; stroke-width: 0.8; stroke-linejoin: miter; stroke-linecap: square"/>
   </g>
   <g id="patch_6">
    <path d="M 57.6 41.472 
L 414.72 41.472 
" style="fill: none; stroke: #000000; stroke-width: 0.8; stroke-linejoin: miter; stroke-linecap: square"/>
   </g>
  </g>
 </g>
 <defs>
  <clipPath id="p955ae201b7">
   <rect x="57.6" y="41.472" width="357.12" height="266.112"/>
  </clipPath>
 </defs>
</svg>
